<svg xmlns="http://www.w3.org/2000/svg" width="92" height="107" fill="none"><g clip-path="url(#a)"><path fill="#231F20" d="M19.77 90.55c2.06 0 4.03.8 5.59 2.12.18.19.2.46.02.64l-1.42 1.49c-.18.18-.39.18-.6 0a5.2 5.2 0 0 0-3.45-1.33 5.25 5.25 0 0 0-5.13 5.3 5.2 5.2 0 0 0 5.15 5.24c1.28 0 2.27-.4 2.73-.58v-1.94h-1.84c-.25 0-.43-.18-.43-.4v-1.81c0-.25.18-.44.43-.44h4.4c.23 0 .42.2.42.44v5.85c0 .18-.1.3-.19.36 0 0-2.36 1.49-5.68 1.49a8.22 8.22 0 1 1 0-16.43m26.13.66c0-.23.18-.43.43-.43h6.56c2.74 0 4.99 2.19 4.99 4.9 0 2.11-1.4 3.83-3.39 4.63l3.14 5.8c.16.3 0 .66-.4.66h-2.4c-.2 0-.32-.11-.36-.2l-3.05-6.06h-2.54v5.83c0 .22-.21.43-.44.43h-2.1a.43.43 0 0 1-.44-.43V91.2Zm6.73 6.86a2.33 2.33 0 0 0 2.27-2.33 2.28 2.28 0 0 0-2.27-2.22H48.9v4.55zm16.48-7.52a8.22 8.22 0 1 1 0 16.45 8.16 8.16 0 0 1-8.22-8.2 8.2 8.2 0 0 1 8.22-8.25m0 13.48a5.27 5.27 0 0 0 5.27-5.23 5.31 5.31 0 0 0-5.27-5.28 5.25 5.25 0 0 0 0 10.51m-33.73 2.74a7.18 7.18 0 0 0 5.91-2.83l.07-.08a.5.5 0 0 0-.07-.68l-1.35-1.21a.5.5 0 0 0-.72.06l-.08.1a4.71 4.71 0 0 1-3.78 1.92c-1.5 0-2.56-.91-2.56-2.23 0-1.38 1.3-2.2 3.46-2.2h1.01a.5.5 0 0 0 .48-.34l.38-1.12a.5.5 0 0 0-.1-.49l-.05-.05-3.68-4.14h5.85a.5.5 0 0 0 .5-.5v-1.7a.5.5 0 0 0-.5-.5h-9.51a.5.5 0 0 0-.5.5v1.31c0 .13.04.3.13.38l3.82 4.24c-2.64.56-4.18 2.21-4.18 4.55 0 2.86 2.35 5.01 5.47 5.01"/><mask id="b" width="90" height="83" x="0" y="0" maskUnits="userSpaceOnUse" style="mask-type:luminance"><path fill="#fff" d="M44.82 82.2c-3.59-.27-16.31-14.5-19.45-21.75-1.67-3.87-.38-8.03.75-11.7.86-2.76 1.67-5.37 1.14-7.53-.7-2.8-2.15-3.9-3.99-5.3a23.3 23.3 0 0 1-5.23-5.14c-1.12-1.52-2.8-3.54-4.75-5.88C7.69 18.19 0 8.98.73 5.34 1.41 2 9.07.5 16.36.5c2.76 0 5.42.21 7.48.6 3.7.68 7.25 3.61 10.69 6.45 3.43 2.83 6.67 5.5 10.11 6.2.91.19 1.86.28 2.83.28 3.48 0 6.82-1.16 10.36-2.38a52 52 0 0 1 7.61-2.2c2.23-.41 4.97-1.14 7.87-1.91 4.73-1.26 9.61-2.56 12.72-2.56 1.26 0 2.14.22 2.6.65 2.58 2.43-1.96 13.29-6.98 18.82-2.4 2.67-6.57 4.6-10.98 6.65-4.67 2.17-9.5 4.41-12.41 7.68-4.8 5.38-7.12 13.15-9.17 20a263 263 0 0 1-1.02 3.36c-.97 3.12-1.06 7.36-1.13 11.1-.09 4.6-.16 8.94-2.03 8.94h-.1ZM.63 4.22S.18 4.8.18 5.94C.22 7.11.63 8 .63 8c1.64 4.5 7.43 11.44 12.27 17.24 1.94 2.33 3.62 4.35 4.73 5.85 2 2.72 3.85 4.12 5.33 5.24 1.83 1.39 3.15 2.4 3.8 5.03.5 2.02-.29 4.56-1.12 7.25-1.17 3.76-2.49 8-.74 12.05 2.76 6.39 14.47 20.1 19.13 21.86 0 0 .45.17.82.17.52 0 .85-.17.85-.17 1.6-.87 1.66-4.64 1.75-9.26.07-3.7.15-7.9 1.11-10.95.34-1.07.67-2.2 1.02-3.36 2.03-6.8 4.34-14.52 9.06-19.81 2.85-3.2 7.62-5.41 12.24-7.56 4.46-2.06 8.67-4.02 11.15-6.76 3.8-4.19 7.8-12.2 7.84-16.76v-.13c-.01-1.16-.28-2.08-.89-2.65-.57-.53-1.54-.8-2.95-.8-3.18 0-8.1 1.32-12.85 2.58-2.89.77-5.62 1.5-7.83 1.9a52.4 52.4 0 0 0-7.69 2.23c-3.5 1.2-6.8 2.35-10.2 2.35-.93 0-1.84-.09-2.72-.27-3.32-.67-6.5-3.3-9.89-6.1C31.37 4.3 27.77 1.33 23.94.62A43 43 0 0 0 16.36 0C10.04 0 2.53 1.13.63 4.23Z"/></mask><g mask="url(#b)"><path fill="url(#c)" d="M91.23 0H.02v82.68h91.2V0Z"/></g><mask id="d" width="88" height="80" x="1" y="1" maskUnits="userSpaceOnUse" style="mask-type:luminance"><path fill="#fff" d="M44.82 80.47c-3.46-.25-15.76-14-18.8-21.01-1.61-3.74-.36-7.75.74-11.3.83-2.67 1.6-5.2 1.1-7.29-.68-2.72-2.08-3.79-3.87-5.14-1.4-1.06-3.16-2.39-5.05-4.96a138 138 0 0 0-4.6-5.69C8.92 18.58 1.5 9.68 2.2 6.18c.65-3.21 8.05-4.65 15.1-4.65 2.67 0 5.24.2 7.23.57 3.57.67 7 3.5 10.32 6.24s6.45 5.33 9.79 6c.88.18 1.8.27 2.73.27 3.37 0 6.6-1.12 10.01-2.3 2.37-.82 4.82-1.67 7.37-2.13 2.15-.4 4.79-1.1 7.58-1.85 4.58-1.21 9.3-2.48 12.31-2.48 1.22 0 2.06.22 2.51.64 2.49 2.33-1.9 12.83-6.74 18.18-2.33 2.58-6.36 4.45-10.62 6.42-4.51 2.1-9.17 4.26-12 7.43-4.64 5.2-6.88 12.72-8.86 19.35l-.98 3.23c-.95 3.02-1.03 7.11-1.1 10.72-.08 4.45-.16 8.65-1.94 8.65h-.1ZM1.7 6.07c-.76 3.76 6.45 12.4 12.23 19.34 1.89 2.26 3.51 4.21 4.58 5.66a23 23 0 0 0 5.16 5.07c1.77 1.34 3.05 2.3 3.68 4.86.48 1.95-.28 4.41-1.1 7.01-1.12 3.63-2.4 7.74-.7 11.65 2.83 6.55 15.38 21.04 19.22 21.32h.14c2.28 0 2.35-4.04 2.45-9.15.07-3.57.15-7.63 1.07-10.58.33-1.03.65-2.11.99-3.23 1.96-6.58 4.19-14.04 8.75-19.17 2.76-3.08 7.37-5.22 11.84-7.3 4.3-2 8.38-3.88 10.78-6.54 4.64-5.12 9.61-16.17 6.71-18.9-.55-.51-1.49-.76-2.86-.76-3.07 0-7.83 1.26-12.44 2.5-2.78.73-5.41 1.44-7.55 1.83-2.58.47-5.05 1.32-7.44 2.15-3.37 1.16-6.56 2.27-9.84 2.27-.9 0-1.78-.09-2.63-.26-3.2-.64-6.3-3.2-9.57-5.9-3.36-2.77-6.84-5.65-10.55-6.34a41.7 41.7 0 0 0-7.32-.58c-6.73 0-14.85 1.32-15.6 5.06Z"/></mask><g mask="url(#d)"><path fill="url(#e)" d="M90.4 1.02H.96v79.96h89.46V1.02Z"/></g><mask id="f" width="84" height="78" x="3" y="2" maskUnits="userSpaceOnUse" style="mask-type:luminance"><path fill="#fff" d="M44.82 78.75c-3.35-.24-15.21-13.51-18.14-20.29-1.56-3.6-.35-7.47.7-10.9.8-2.58 1.56-5.01 1.07-7.04-.65-2.63-2.01-3.66-3.73-4.96-1.36-1.03-3.06-2.31-4.89-4.8-1.03-1.4-2.6-3.29-4.43-5.47C10.17 19 3 10.4 3.7 7.03c.62-3.1 7.77-4.49 14.57-4.49 2.57 0 5.05.2 6.98.56 3.45.64 6.76 3.38 9.96 6.02 3.2 2.65 6.23 5.15 9.45 5.8.85.17 1.74.25 2.64.25 3.25 0 6.37-1.08 9.67-2.22 2.29-.79 4.66-1.6 7.1-2.06 2.09-.38 4.64-1.06 7.34-1.77 4.4-1.18 8.97-2.4 11.87-2.4 1.18 0 2 .2 2.43.61 2.4 2.26-1.84 12.38-6.52 17.55-2.25 2.48-6.13 4.29-10.25 6.2-4.35 2.02-8.86 4.11-11.58 7.16-4.48 5.02-6.64 12.26-8.55 18.65-.33 1.1-.64 2.16-.96 3.16-.92 2.92-1 6.88-1.06 10.37-.08 4.29-.15 8.33-1.88 8.33h-.08ZM3.19 6.93C2.46 10.55 9.42 18.9 15 25.6c1.82 2.18 3.38 4.06 4.41 5.46a22.2 22.2 0 0 0 4.99 4.9c1.7 1.29 2.94 2.22 3.54 4.67.47 1.89-.27 4.26-1.05 6.78-1.09 3.5-2.32 7.47-.69 11.25 1.3 3.02 4.8 7.96 8.9 12.59 1.63 1.83 7.12 7.81 9.67 8h.13c2.21 0 2.29-3.9 2.38-8.83.07-3.46.14-7.38 1.04-10.23l.96-3.16c1.9-6.34 4.04-13.53 8.44-18.46 2.65-2.97 7.11-5.04 11.42-7.04 4.16-1.93 8.1-3.76 10.41-6.32 4.49-4.95 9.29-15.63 6.49-18.26-.54-.5-1.45-.75-2.78-.75-2.96 0-7.56 1.23-12 2.41-2.7.72-5.23 1.4-7.3 1.77-2.49.46-4.87 1.28-7.18 2.08-3.25 1.13-6.33 2.2-9.5 2.2-.87 0-1.72-.09-2.54-.25-3.09-.63-6.07-3.09-9.22-5.7-3.26-2.68-6.62-5.45-10.2-6.12a40.3 40.3 0 0 0-7.07-.56c-6.5 0-14.34 1.28-15.07 4.89Z"/></mask><g mask="url(#f)"><path fill="url(#g)" d="M88.85 2.04H2.45v77.22h86.4z"/></g><mask id="h" width="82" height="75" x="4" y="3" maskUnits="userSpaceOnUse" style="mask-type:luminance"><path fill="#fff" d="M44.82 77.02C41.6 76.8 30.16 64 27.34 57.47c-1.5-3.47-.35-7.2.68-10.5.77-2.49 1.5-4.84 1.02-6.8-.63-2.53-1.94-3.53-3.6-4.79-1.31-1-2.94-2.23-4.7-4.62-1.01-1.36-2.53-3.18-4.29-5.3C11.41 19.43 4.51 11.15 5.16 7.89c.6-2.98 7.49-4.32 14.05-4.32 2.48 0 4.87.2 6.73.54 3.32.62 6.5 3.25 9.6 5.8 3.08 2.55 6 4.96 9.11 5.59.82.16 1.68.25 2.55.25 3.14 0 6.15-1.04 9.33-2.14 2.2-.76 4.49-1.55 6.85-1.98 2-.37 4.46-1.02 7.06-1.72C74.7 8.77 79.1 7.6 81.9 7.6c1.13 0 1.92.19 2.33.58 2.31 2.17-1.77 11.93-6.28 16.9-2.17 2.4-5.92 4.14-9.89 5.98-4.2 1.95-8.54 3.97-11.17 6.91-4.31 4.84-6.4 11.83-8.24 18-.32 1.05-.62 2.07-.93 3.03-.88 2.82-.95 6.64-1.02 10-.08 4.14-.14 8.03-1.8 8.03h-.08ZM4.66 7.78c-.7 3.5 6.01 11.54 11.4 18.01 1.75 2.1 3.27 3.92 4.26 5.27 1.8 2.45 3.47 3.71 4.81 4.73 1.64 1.24 2.83 2.14 3.41 4.5.45 1.82-.26 4.1-1.01 6.53-1.05 3.38-2.24 7.2-.66 10.85 1.25 2.91 4.63 7.68 8.59 12.15 1.56 1.76 6.86 7.53 9.32 7.71h.13c2.14 0 2.21-3.76 2.3-8.52.07-3.33.14-7.1 1-9.85l.92-3.05c1.83-6.11 3.9-13.04 8.15-17.8 2.55-2.87 6.84-4.86 11-6.79 4.01-1.86 7.8-3.62 10.05-6.1 4.32-4.77 8.96-15.07 6.25-17.61-.52-.5-1.4-.73-2.68-.73-2.87 0-7.3 1.19-11.6 2.33-2.58.7-5.03 1.34-7 1.7-2.41.44-4.72 1.24-6.94 2-3.14 1.1-6.1 2.12-9.16 2.12-.83 0-1.66-.08-2.45-.24-2.98-.6-5.85-2.97-8.9-5.48-3.13-2.6-6.37-5.27-9.82-5.91-1.88-.35-4.3-.55-6.82-.55-6.27 0-13.84 1.24-14.55 4.73"/></mask><g mask="url(#h)"><path fill="url(#i)" d="M87.29 3.05H3.96v74.49h83.33z"/></g><mask id="j" width="78" height="72" x="6" y="4" maskUnits="userSpaceOnUse" style="mask-type:luminance"><path fill="#fff" d="M44.82 75.3c-3.02-.21-14.19-12.7-16.83-18.82-1.44-3.34-.33-6.94.66-10.11.74-2.4 1.45-4.66.98-6.55-.6-2.44-1.86-3.4-3.46-4.61a20.1 20.1 0 0 1-4.53-4.45c-.97-1.31-2.43-3.07-4.12-5.1C12.66 19.85 6 11.87 6.64 8.74c.58-2.87 7.2-4.15 13.51-4.15 2.4 0 4.7.18 6.48.52 3.2.6 6.27 3.13 9.24 5.58 2.98 2.46 5.8 4.78 8.79 5.39.79.16 1.62.24 2.46.24 3.02 0 5.92-1 8.98-2.07 2.13-.73 4.32-1.49 6.6-1.9 1.92-.36 4.29-.99 6.79-1.66 4.1-1.09 8.34-2.22 11.04-2.22 1.08 0 1.84.19 2.23.56 2.22 2.09-1.7 11.48-6.05 16.27-2.08 2.3-5.69 3.97-9.5 5.75-4.05 1.88-8.24 3.82-10.77 6.66-4.17 4.67-6.18 11.41-7.95 17.36l-.88 2.9c-.86 2.7-.92 6.39-.99 9.63-.08 3.97-.13 7.72-1.72 7.72h-.08ZM6.14 8.63C5.46 12 11.93 19.76 17.13 25.99c1.68 2.02 3.14 3.77 4.1 5.07a20.5 20.5 0 0 0 4.63 4.55c1.58 1.2 2.72 2.06 3.28 4.34.43 1.74-.26 3.94-.98 6.27-1.01 3.25-2.16 6.95-.64 10.46 1.21 2.8 4.46 7.4 8.28 11.7 1.5 1.7 6.6 7.26 8.98 7.43h.12c2.07 0 2.14-3.62 2.23-8.21.06-3.21.13-6.85.97-9.5.29-.92.58-1.9.88-2.9 1.76-5.9 3.75-12.58 7.84-17.16 2.47-2.76 6.6-4.68 10.6-6.54 3.87-1.8 7.52-3.5 9.67-5.87 4.17-4.6 8.63-14.53 6.02-16.98-.5-.47-1.35-.7-2.58-.7-2.76 0-7.04 1.14-11.17 2.24-2.5.67-4.85 1.3-6.76 1.64-2.31.43-4.52 1.2-6.66 1.93-3.03 1.05-5.89 2.04-8.82 2.04-.81 0-1.6-.08-2.36-.23-2.87-.58-5.64-2.86-8.56-5.28-3.02-2.5-6.15-5.07-9.47-5.7a37.4 37.4 0 0 0-6.58-.52c-6.04 0-13.33 1.2-14 4.56Z"/></mask><g mask="url(#j)"><path fill="url(#k)" d="M85.72 4.07H5.46v71.75h80.26z"/></g><mask id="l" width="76" height="70" x="7" y="5" maskUnits="userSpaceOnUse" style="mask-type:luminance"><path fill="#fff" d="M44.82 73.58c-2.9-.2-13.63-12.22-16.17-18.1-1.39-3.2-.32-6.66.63-9.7.72-2.32 1.4-4.5.95-6.3-.58-2.36-1.8-3.28-3.34-4.45a19.4 19.4 0 0 1-4.36-4.28c-.92-1.26-2.33-2.94-3.95-4.88-4.67-5.6-11.07-13.28-10.46-16.3.55-2.74 6.92-3.97 12.98-3.97 2.3 0 4.51.17 6.23.5 3.07.57 6.02 3 8.87 5.36 2.87 2.37 5.58 4.6 8.46 5.18.76.16 1.56.24 2.37.24 2.9 0 5.69-.97 8.63-1.99 2.05-.7 4.16-1.44 6.35-1.84 1.86-.34 4.14-.94 6.56-1.59 3.93-1.05 8-2.13 10.58-2.13 1.05 0 1.77.18 2.15.54 2.13 2-1.65 11.02-5.82 15.62-2 2.22-5.48 3.83-9.15 5.53-3.89 1.8-7.9 3.68-10.34 6.4-4.01 4.5-5.95 10.98-7.65 16.7l-.85 2.79c-.82 2.6-.89 6.14-.95 9.26-.07 3.82-.14 7.42-1.64 7.42h-.08ZM7.62 9.48c-.66 3.25 5.57 10.72 10.57 16.71 1.62 1.94 3.01 3.62 3.93 4.86a19.8 19.8 0 0 0 4.46 4.38c1.52 1.15 2.61 1.99 3.15 4.17.41 1.67-.24 3.78-.94 6.02-.97 3.14-2.07 6.69-.61 10.07 1.16 2.7 4.29 7.11 7.95 11.25 1.46 1.63 6.37 6.98 8.65 7.15h.12c2 0 2.07-3.49 2.15-7.9.06-3.1.13-6.59.93-9.13l.85-2.8c1.69-5.66 3.6-12.09 7.54-16.5 2.36-2.65 6.34-4.5 10.18-6.28 3.72-1.72 7.23-3.35 9.3-5.65 4.02-4.42 8.3-13.98 5.8-16.33-.49-.46-1.3-.68-2.5-.68-2.65 0-6.75 1.1-10.71 2.15-2.4.64-4.68 1.25-6.52 1.58-2.23.4-4.36 1.15-6.42 1.86-2.9 1-5.65 1.96-8.47 1.96-.78 0-1.54-.08-2.27-.22-2.75-.56-5.41-2.76-8.23-5.08-2.9-2.4-5.9-4.88-9.1-5.48-1.75-.32-4-.5-6.33-.5-5.8 0-12.83 1.15-13.48 4.39"/></mask><g mask="url(#l)"><path fill="url(#m)" d="M84.16 5.09H6.96v69h77.2z"/></g><mask id="n" width="72" height="67" x="9" y="6" maskUnits="userSpaceOnUse" style="mask-type:luminance"><path fill="#fff" d="M44.82 71.86c-2.79-.2-13.08-11.72-15.52-17.36-1.33-3.08-.3-6.4.6-9.32.7-2.22 1.35-4.3.92-6.05-.56-2.27-1.73-3.15-3.21-4.28-1.16-.88-2.61-1.98-4.18-4.1-.89-1.21-2.24-2.83-3.8-4.7C15.15 20.68 9.02 13.3 9.6 10.43c.53-2.63 6.64-3.81 12.46-3.81 2.2 0 4.32.16 5.97.47 2.94.55 5.78 2.89 8.51 5.15 2.76 2.28 5.35 4.42 8.12 4.98.73.15 1.5.22 2.28.22 2.8 0 5.47-.92 8.3-1.9a41.5 41.5 0 0 1 6.08-1.77c1.78-.32 3.97-.9 6.28-1.52 3.78-1 7.7-2.05 10.18-2.05 1 0 1.68.17 2.05.51 1.74 1.64-.9 9.82-5.59 14.99-1.92 2.12-5.25 3.67-8.77 5.3-3.74 1.74-7.6 3.53-9.94 6.16-3.86 4.32-5.71 10.55-7.35 16.05l-.8 2.65c-.8 2.51-.86 5.9-.92 8.9-.07 3.66-.13 7.1-1.58 7.1zM9.1 10.33c-.63 3.12 5.34 10.29 10.14 16.04 1.55 1.87 2.9 3.48 3.78 4.68 1.6 2.18 3.09 3.3 4.28 4.2 1.46 1.11 2.5 1.9 3.02 4 .4 1.6-.23 3.63-.9 5.78-.93 3-2 6.42-.59 9.67 2.82 6.52 13.15 17.47 15.95 17.67h.11c1.94 0 2-3.35 2.08-7.6.06-2.96.12-6.32.9-8.75l.8-2.66c1.62-5.45 3.46-11.63 7.24-15.86 2.27-2.55 6.09-4.32 9.78-6.04 3.57-1.65 6.94-3.22 8.93-5.42 3.86-4.25 7.98-13.43 5.56-15.7-.47-.44-1.25-.65-2.4-.65-2.55 0-6.5 1.05-10.31 2.07-2.3.61-4.48 1.2-6.24 1.51-2.14.4-4.18 1.1-6.16 1.79-2.79.96-5.42 1.87-8.13 1.87-.75 0-1.48-.07-2.18-.2-2.64-.54-5.19-2.65-7.89-4.88-2.79-2.3-5.67-4.69-8.75-5.26a34.6 34.6 0 0 0-6.06-.48c-5.59 0-12.33 1.1-12.96 4.22"/></mask><g mask="url(#n)"><path fill="url(#o)" d="M82.6 6.1H8.47v66.27H82.6V6.11Z"/></g><mask id="p" width="70" height="64" x="10" y="7" maskUnits="userSpaceOnUse" style="mask-type:luminance"><path fill="#fff" d="M44.82 70.14c-2.67-.2-12.53-11.23-14.86-16.63-1.27-2.95-.29-6.13.58-8.93.66-2.12 1.28-4.13.87-5.8-.54-2.18-1.66-3.03-3.08-4.1-1.11-.85-2.5-1.9-4-3.93-.86-1.17-2.15-2.72-3.65-4.51-4.29-5.15-10.16-12.2-9.6-14.95.5-2.53 6.35-3.66 11.92-3.66 2.11 0 4.15.17 5.72.46 2.82.53 5.54 2.77 8.16 4.94 2.64 2.17 5.13 4.23 7.79 4.77.7.14 1.43.2 2.18.2 2.68 0 5.24-.88 7.95-1.82a40 40 0 0 1 5.84-1.69c1.7-.3 3.8-.87 6.02-1.46 3.62-.97 7.36-1.96 9.74-1.96.96 0 1.62.16 1.96.49 1.67 1.56-.86 9.39-5.35 14.35-1.84 2.03-5.03 3.51-8.41 5.08-3.58 1.66-7.28 3.38-9.53 5.9-3.7 4.14-5.47 10.11-7.04 15.38l-.77 2.54c-.76 2.4-.82 5.66-.88 8.53-.07 3.5-.15 6.8-1.5 6.8zM10.57 11.18c-.6 3 5.12 9.87 9.72 15.38a109 109 0 0 1 3.63 4.49c1.54 2.1 2.96 3.17 4.1 4.03 1.4 1.05 2.4 1.82 2.9 3.82.37 1.53-.23 3.47-.87 5.53-.9 2.89-1.9 6.16-.56 9.28 2.7 6.24 12.6 16.74 15.3 16.94h.1c1.86 0 1.92-3.22 2-7.3.06-2.83.12-6.05.85-8.38l.78-2.55c1.55-5.22 3.32-11.14 6.93-15.2 2.18-2.43 5.83-4.13 9.36-5.77 3.43-1.59 6.66-3.09 8.58-5.2 3.7-4.08 7.64-12.89 5.32-15.06-.45-.43-1.2-.63-2.3-.63-2.45 0-6.23 1-9.88 1.98-2.21.59-4.3 1.14-5.98 1.45a40 40 0 0 0-5.92 1.71c-2.67.93-5.2 1.8-7.78 1.8-.71 0-1.41-.07-2.08-.2-2.53-.51-4.97-2.53-7.56-4.67-2.68-2.2-5.44-4.5-8.4-5.04-1.6-.3-3.67-.47-5.8-.47-5.36 0-11.83 1.07-12.44 4.06"/></mask><g mask="url(#p)"><path fill="url(#q)" d="M81.03 7.12H9.97v63.53h71.06z"/></g><mask id="r" width="66" height="61" x="12" y="8" maskUnits="userSpaceOnUse" style="mask-type:luminance"><path fill="#fff" d="M44.82 68.42c-2.55-.19-11.98-10.74-14.21-15.9-1.21-2.82-.27-5.86.56-8.54.63-2.03 1.23-3.95.83-5.55-.51-2.09-1.59-2.9-2.95-3.93-1.06-.81-2.4-1.82-3.82-3.76-.82-1.11-2.06-2.6-3.5-4.32-4.1-4.92-9.71-11.65-9.18-14.29.49-2.4 6.08-3.48 11.4-3.48 2.02 0 3.96.16 5.47.44 2.7.5 5.29 2.64 7.8 4.71 2.52 2.09 4.9 4.06 7.45 4.57.68.14 1.38.2 2.1.2 2.56 0 5-.84 7.6-1.74 1.8-.62 3.66-1.26 5.58-1.61a80 80 0 0 0 5.75-1.4c3.47-.93 7.05-1.88 9.33-1.88.91 0 1.54.15 1.87.46 1.59 1.5-.83 8.97-5.12 13.7-1.76 1.95-4.81 3.37-8.04 4.86-3.42 1.6-6.97 3.24-9.12 5.65-3.54 3.96-5.24 9.68-6.74 14.72l-.74 2.44c-.72 2.3-.78 5.4-.84 8.15-.06 3.34-.12 6.5-1.41 6.5zM12.05 12.03c-.58 2.87 4.9 9.44 9.3 14.72 1.42 1.71 2.66 3.2 3.47 4.3 1.47 2 2.83 3.02 3.92 3.85 1.33 1 2.3 1.74 2.77 3.65.36 1.46-.22 3.32-.83 5.28-.86 2.77-1.83 5.9-.54 8.89 2.59 5.98 12.07 16.02 14.64 16.2h.1c1.8 0 1.86-3.08 1.93-6.99.06-2.7.12-5.78.82-8.01l.74-2.45c1.48-4.99 3.17-10.64 6.63-14.52 2.08-2.33 5.58-3.96 8.96-5.52 3.27-1.52 6.37-2.96 8.2-4.98 1.81-2 3.63-5.04 4.74-7.94 1.22-3.18 1.35-5.54.35-6.48-.44-.4-1.16-.6-2.22-.6-2.34 0-5.96.96-9.47 1.9-2.1.56-4.1 1.09-5.7 1.38-1.97.36-3.84 1.01-5.65 1.64-2.56.88-4.97 1.72-7.45 1.72-.68 0-1.35-.07-1.99-.2-2.42-.48-4.75-2.42-7.23-4.46-2.56-2.11-5.2-4.3-8.02-4.82a32 32 0 0 0-5.56-.45c-5.13 0-11.33 1.02-11.91 3.9Z"/></mask><g mask="url(#r)"><path fill="url(#s)" d="M78.49 8.14H11.47v60.79H78.5V8.14Z"/></g><mask id="t" width="64" height="59" x="13" y="9" maskUnits="userSpaceOnUse" style="mask-type:luminance"><path fill="#fff" d="M44.82 66.7c-2.43-.18-11.42-10.25-13.55-15.18-1.16-2.68-.26-5.58.53-8.13.6-1.95 1.17-3.78.8-5.32-.5-2-1.52-2.77-2.82-3.75a16.3 16.3 0 0 1-3.65-3.59c-.78-1.05-1.96-2.47-3.33-4.11-3.91-4.7-9.28-11.13-8.77-13.64.46-2.28 5.8-3.31 10.87-3.31 1.93 0 3.78.15 5.22.41 2.57.48 5.04 2.53 7.44 4.5 2.4 2 4.68 3.88 7.11 4.37.65.13 1.32.2 2 .2 2.45 0 4.8-.82 7.28-1.68 1.7-.59 3.48-1.2 5.32-1.54 1.55-.28 3.46-.79 5.48-1.33 3.31-.88 6.73-1.8 8.9-1.8.87 0 1.47.15 1.78.45 1.51 1.42-.8 8.54-4.89 13.06-1.68 1.86-4.59 3.2-7.66 4.64-3.28 1.52-6.66 3.09-8.72 5.4-3.37 3.77-5 9.22-6.43 14.02l-.7 2.35c-.7 2.2-.75 5.17-.8 7.79-.07 3.18-.13 6.19-1.35 6.19zm-31.3-53.82c-.55 2.75 4.69 9.03 8.89 14.07a100 100 0 0 1 3.3 4.09c1.41 1.9 2.71 2.9 3.76 3.68 1.27.96 2.18 1.65 2.63 3.48.34 1.39-.2 3.16-.79 5.04-.82 2.64-1.74 5.63-.51 8.48 2.47 5.72 11.52 15.3 13.98 15.48h.1c1.72 0 1.78-2.94 1.85-6.68.06-2.59.11-5.52.78-7.65l.71-2.35c1.42-4.76 3.03-10.15 6.33-13.84 1.98-2.22 5.31-3.77 8.54-5.27 3.13-1.45 6.08-2.83 7.83-4.76a25.9 25.9 0 0 0 4.53-7.58c.69-1.78 1.64-4.96.33-6.2-.42-.38-1.11-.57-2.13-.57-2.23 0-5.69.92-9.03 1.8-2 .54-3.9 1.05-5.45 1.33-1.87.34-3.66.96-5.4 1.56-2.43.85-4.73 1.64-7.1 1.64-.65 0-1.28-.06-1.9-.18-2.3-.47-4.53-2.3-6.89-4.25-2.44-2.02-4.97-4.11-7.67-4.62a30.4 30.4 0 0 0-5.3-.42c-4.9 0-10.83.98-11.38 3.72Z"/></mask><g mask="url(#t)"><path fill="url(#u)" d="M77.1 9.16H12.96v58.05H77.1z"/></g><mask id="v" width="61" height="56" x="14" y="10" maskUnits="userSpaceOnUse" style="mask-type:luminance"><path fill="#fff" d="M44.82 64.98c-2.31-.17-10.87-9.76-12.9-14.45-1.1-2.55-.24-5.3.51-7.74.58-1.85 1.12-3.6.76-5.06-.47-1.9-1.45-2.65-2.69-3.59-.97-.73-2.17-1.65-3.48-3.4a97 97 0 0 0-3.17-3.94c-3.72-4.47-8.83-10.59-8.35-12.97.44-2.17 5.51-3.14 10.35-3.14 1.83 0 3.6.14 4.97.4 2.44.45 4.8 2.4 7.07 4.28 2.3 1.9 4.47 3.69 6.79 4.16a9.6 9.6 0 0 0 1.9.18c2.33 0 4.57-.77 6.93-1.6a34.6 34.6 0 0 1 5.07-1.46c1.48-.27 3.3-.75 5.22-1.27 3.15-.84 6.41-1.7 8.48-1.7.82 0 1.39.14 1.68.41 1.44 1.35-.76 8.13-4.65 12.43-1.6 1.77-4.37 3.05-7.3 4.41-3.12 1.45-6.34 2.95-8.3 5.14-3.21 3.6-4.76 8.79-6.13 13.37l-.67 2.23c-.66 2.1-.72 4.93-.77 7.43-.06 3.02-.1 5.88-1.26 5.88zM15 13.73c-.52 2.62 4.46 8.6 8.46 13.4 1.3 1.56 2.42 2.9 3.15 3.9 1.35 1.83 2.59 2.76 3.58 3.52 1.2.91 2.08 1.57 2.5 3.3.33 1.32-.19 3-.74 4.8-.79 2.5-1.67 5.36-.5 8.08 2.01 4.65 10.59 14.55 13.33 14.75h.1c1.65 0 1.7-2.8 1.77-6.37.05-2.47.1-5.26.74-7.29.23-.71.45-1.46.68-2.24 1.35-4.52 2.88-9.66 6.02-13.17 1.89-2.12 5.06-3.6 8.13-5.02 2.98-1.38 5.8-2.69 7.47-4.53 3.22-3.56 6.72-11.18 4.62-13.14-.4-.37-1.06-.55-2.03-.55-2.13 0-5.43.87-8.61 1.72-1.91.51-3.72 1-5.19 1.26-1.78.33-3.49.92-5.14 1.49-2.32.8-4.51 1.56-6.76 1.56-.62 0-1.22-.06-1.8-.17-2.2-.45-4.31-2.2-6.56-4.05-2.33-1.93-4.74-3.92-7.31-4.4-1.4-.26-3.2-.4-5.06-.4-4.9 0-10.32.93-10.85 3.55"/></mask><g mask="url(#v)"><path fill="url(#w)" d="M76.4 10.18H14.49v55.3H76.4z"/></g><mask id="x" width="58" height="53" x="16" y="11" maskUnits="userSpaceOnUse" style="mask-type:luminance"><path fill="#fff" d="M44.82 63.26c-2.2-.17-10.31-9.27-12.24-13.72-1.05-2.42-.23-5.03.48-7.34.55-1.77 1.07-3.43.72-4.82-.44-1.81-1.37-2.52-2.55-3.41a14.6 14.6 0 0 1-3.3-3.24c-.7-.96-1.77-2.23-3-3.7-3.55-4.26-8.4-10.08-7.95-12.35.42-2.05 5.23-2.97 9.81-2.97 1.75 0 3.42.13 4.72.37 2.32.43 4.56 2.28 6.72 4.07 2.18 1.8 4.25 3.5 6.45 3.95.59.12 1.2.18 1.81.18 2.22 0 4.34-.74 6.59-1.51 1.55-.54 3.15-1.1 4.81-1.4 1.42-.25 3.15-.72 4.99-1.2 2.98-.8 6.07-1.63 8.03-1.63.77 0 1.3.13 1.58.4 1.37 1.27-.72 7.7-4.42 11.79-1.51 1.67-4.14 2.89-6.93 4.18-2.96 1.38-6.02 2.8-7.89 4.89-3.05 3.42-4.52 8.35-5.82 12.7a150 150 0 0 1-.64 2.13c-.63 1.99-.68 4.68-.73 7.06-.05 2.86-.1 5.57-1.19 5.57zM16.48 14.58c-.5 2.5 4.24 8.2 8.06 12.77 1.22 1.47 2.28 2.73 2.98 3.68 1.27 1.73 2.45 2.62 3.4 3.34 1.14.87 1.96 1.5 2.37 3.13.3 1.25-.19 2.85-.71 4.55-.75 2.39-1.59 5.1-.47 7.69 1.91 4.42 10.06 13.83 12.67 14.02h.1c1.57 0 1.63-2.67 1.7-6.07.04-2.34.09-4.99.7-6.91l.64-2.13c1.28-4.3 2.74-9.18 5.72-12.52 1.79-2 4.8-3.4 7.72-4.76 2.83-1.31 5.5-2.55 7.1-4.3 3.06-3.4 6.38-10.64 4.38-12.51-.38-.35-1.01-.53-1.93-.53-2.02 0-5.15.83-8.17 1.64a70 70 0 0 1-4.94 1.2c-1.7.31-3.32.87-4.9 1.42-2.2.76-4.28 1.48-6.4 1.48-.6 0-1.17-.06-1.72-.17-2.08-.42-4.1-2.08-6.23-3.84-2.2-1.83-4.5-3.72-6.95-4.18a27.6 27.6 0 0 0-4.8-.38c-4.66 0-9.82.89-10.32 3.38"/></mask><g mask="url(#x)"><path fill="url(#y)" d="M74.84 11.2H15.98v52.56h58.86z"/></g><mask id="z" width="55" height="51" x="17" y="12" maskUnits="userSpaceOnUse" style="mask-type:luminance"><path fill="#fff" d="M44.82 61.53c-2.07-.15-9.76-8.77-11.58-12.98-1-2.29-.22-4.77.45-6.95.52-1.67 1.01-3.25.69-4.57-.43-1.73-1.31-2.4-2.43-3.24a13.8 13.8 0 0 1-3.12-3.07c-.67-.9-1.68-2.12-2.85-3.52-3.36-4.02-7.95-9.53-7.52-11.67.39-1.94 4.94-2.8 9.27-2.8 1.65 0 3.25.12 4.48.35 2.2.4 4.3 2.16 6.36 3.85 2.07 1.71 4.02 3.33 6.12 3.75.55.1 1.13.16 1.71.16 2.1 0 4.12-.7 6.24-1.43 1.47-.5 3-1.03 4.56-1.32 1.35-.24 2.99-.68 4.73-1.15 2.83-.75 5.76-1.53 7.6-1.53.74 0 1.24.12 1.5.37 1.37 1.29-1.02 7.65-4.2 11.15-1.43 1.58-3.92 2.74-6.55 3.96-2.81 1.3-5.71 2.66-7.48 4.63-2.9 3.26-4.3 7.94-5.53 12.07l-.6 1.99c-.6 1.89-.64 4.44-.69 6.69-.05 2.7-.1 5.26-1.1 5.26zm-26.86-46.1c-.48 2.38 4.02 7.77 7.63 12.1 1.16 1.4 2.17 2.6 2.83 3.5a14.2 14.2 0 0 0 3.22 3.16c1.08.82 1.86 1.41 2.24 2.96.3 1.18-.18 2.7-.67 4.3-.7 2.27-1.5 4.84-.44 7.3 1.8 4.19 9.54 13.1 12.01 13.29h.1c1.5 0 1.55-2.54 1.61-5.76.05-2.22.1-4.73.67-6.55l.6-2c1.22-4.07 2.6-8.7 5.42-11.87 1.7-1.9 4.55-3.22 7.31-4.5 2.69-1.25 5.22-2.43 6.73-4.09 2.9-3.2 6.05-10.08 4.16-11.86-.36-.34-.97-.5-1.84-.5-1.92 0-4.88.78-7.74 1.54-1.73.46-3.37.9-4.69 1.14-1.6.3-3.14.83-4.63 1.34-2.09.72-4.06 1.4-6.08 1.4-.55 0-1.1-.05-1.61-.15-1.97-.4-3.88-1.97-5.9-3.64-2.1-1.74-4.27-3.53-6.59-3.96a26 26 0 0 0-4.57-.36c-4.4 0-9.3.84-9.77 3.21"/></mask><g mask="url(#z)"><path fill="url(#A)" d="M73.27 12.22H17.48v49.82h55.8V12.22Z"/></g><mask id="B" width="52" height="48" x="14" y="8" maskUnits="userSpaceOnUse" style="mask-type:luminance"><path fill="#fff" d="M40.27 54.78c-1.96-.15-9.2-8.28-10.93-12.26-.93-2.15-.2-4.49.44-6.55.49-1.58.95-3.07.64-4.32-.4-1.63-1.24-2.27-2.3-3.07-.86-.66-1.84-1.4-2.94-2.9a80 80 0 0 0-2.7-3.33c-3.16-3.8-7.5-9-7.09-11 .37-1.82 4.66-2.64 8.74-2.64 1.56 0 3.06.12 4.23.34 2.07.38 4.07 2.03 6 3.63 1.95 1.62 3.8 3.14 5.78 3.54.52.1 1.07.16 1.63.16 1.99 0 3.89-.66 5.9-1.36 1.39-.48 2.82-.97 4.3-1.24 1.27-.23 2.82-.65 4.47-1.09 2.67-.7 5.43-1.44 7.17-1.44.7 0 1.16.11 1.4.34 1.3 1.21-.96 7.21-3.95 10.51-1.36 1.5-3.7 2.59-6.19 3.74-2.66 1.23-5.4 2.5-7.07 4.38-2.75 3.07-4.06 7.5-5.23 11.4l-.56 1.88c-.57 1.78-.61 4.2-.65 6.32-.05 2.55-.1 4.96-1.04 4.96zM14.89 11.25c-.45 2.25 3.79 7.33 7.2 11.42 1.1 1.33 2.05 2.47 2.68 3.32 1.14 1.55 2.2 2.35 3.04 3 1.02.76 1.76 1.32 2.11 2.78.28 1.11-.16 2.54-.63 4.05-.67 2.14-1.42 4.58-.41 6.9 1.7 3.96 9.01 12.4 11.35 12.56h.13c1.4-.04 1.45-2.43 1.5-5.45.05-2.1.1-4.47.63-6.18l.57-1.88c1.15-3.86 2.45-8.22 5.12-11.21 1.6-1.8 4.3-3.05 6.9-4.26 2.54-1.18 4.93-2.29 6.35-3.85 2.75-3.04 5.73-9.54 3.93-11.23-.34-.32-.91-.48-1.75-.48-1.8 0-4.6.74-7.3 1.46-1.64.44-3.18.85-4.43 1.08-1.52.27-2.97.78-4.38 1.26-1.97.68-3.83 1.33-5.73 1.33a8 8 0 0 1-1.53-.15c-1.85-.37-3.65-1.86-5.55-3.43-1.99-1.64-4.04-3.34-6.24-3.74-1.2-.23-2.73-.35-4.32-.35-4.17 0-8.79.8-9.24 3.05"/></mask><g mask="url(#B)"><path fill="url(#C)" d="M67.16 8.2H14.44v47.1h52.72z"/></g><mask id="D" width="49" height="45" x="20" y="14" maskUnits="userSpaceOnUse" style="mask-type:luminance"><path fill="#fff" d="M44.82 58.09c-1.84-.13-8.65-7.78-10.27-11.52-.88-2.03-.2-4.23.4-6.16.47-1.5.9-2.9.61-4.08-.38-1.54-1.17-2.14-2.17-2.9a12.2 12.2 0 0 1-2.77-2.71c-.6-.81-1.5-1.9-2.54-3.14-2.8-3.37-7.04-8.46-6.67-10.35.35-1.7 4.38-2.47 8.22-2.47 1.47 0 2.88.11 3.97.32 1.94.36 3.82 1.91 5.64 3.41 1.84 1.52 3.59 2.96 5.45 3.34.5.1 1.01.15 1.54.15 1.88 0 3.67-.62 5.56-1.28 1.3-.45 2.65-.91 4.04-1.17 1.2-.22 2.65-.6 4.19-1.02 2.52-.67 5.12-1.36 6.77-1.36.64 0 1.08.1 1.3.32 1.22 1.14-.9 6.77-3.72 9.87-1.28 1.4-3.49 2.43-5.83 3.52-2.5 1.16-5.08 2.36-6.65 4.12-2.58 2.9-3.83 7.06-4.92 10.74l-.54 1.76c-.52 1.68-.57 3.95-.6 5.95-.05 2.3-.1 4.66-.97 4.66zm-23.9-40.96c-.43 2.13 3.56 6.92 6.77 10.77a75 75 0 0 1 2.52 3.12 12.8 12.8 0 0 0 2.87 2.82c.96.72 1.65 1.24 1.98 2.61.26 1.05-.15 2.39-.6 3.8-.62 2.03-1.33 4.32-.38 6.52 1.61 3.73 8.5 11.67 10.7 11.83h.08c1.38 0 1.42-2.28 1.47-5.16.04-1.96.08-4.2.6-5.8l.53-1.77c1.08-3.63 2.3-7.74 4.8-10.55 1.51-1.69 4.05-2.86 6.5-4 2.39-1.1 4.64-2.16 5.99-3.64 2.6-2.86 5.4-8.99 3.7-10.58-.33-.31-.88-.46-1.66-.46-1.71 0-4.35.7-6.9 1.38-1.53.41-2.98.8-4.15 1.01-1.43.26-2.8.74-4.12 1.2-1.85.63-3.6 1.24-5.4 1.24-.48 0-.96-.05-1.42-.14-1.75-.35-3.44-1.75-5.23-3.23-1.87-1.54-3.8-3.14-5.88-3.52-1.12-.21-2.56-.33-4.06-.33-3.93 0-8.29.76-8.72 2.89Z"/></mask><g mask="url(#D)"><path fill="url(#E)" d="M70.14 14.25H20.49V58.6h49.65z"/></g><mask id="F" width="46" height="42" x="22" y="15" maskUnits="userSpaceOnUse" style="mask-type:luminance"><path fill="#fff" d="M44.82 56.37c-1.72-.13-8.1-7.3-9.62-10.8-.82-1.89-.18-3.94.38-5.75.44-1.4.85-2.73.57-3.84-.35-1.45-1.1-2.02-2.04-2.73a11.3 11.3 0 0 1-2.59-2.54c-.56-.76-1.4-1.77-2.38-2.95-2.63-3.15-6.6-7.92-6.25-9.68.32-1.59 4.1-2.3 7.69-2.3 1.37 0 2.7.1 3.72.3 1.81.33 3.57 1.79 5.27 3.19 1.66 1.37 3.37 2.78 5.13 3.13.46.1.95.14 1.44.14 1.76 0 3.44-.58 5.21-1.2 1.22-.42 2.49-.85 3.8-1.09 1.11-.2 2.48-.57 3.93-.95 2.35-.63 4.8-1.28 6.33-1.28.6 0 1.01.1 1.22.3 1.13 1.06-.86 6.32-3.5 9.23-1.19 1.3-3.26 2.27-5.45 3.29-2.35 1.09-4.77 2.21-6.25 3.87-2.41 2.7-3.58 6.6-4.6 10.05a109 109 0 0 1-.51 1.67c-.5 1.58-.54 3.7-.58 5.59-.04 2.14-.08 4.35-.88 4.35zM22.39 17.98c-.4 2 3.35 6.5 6.36 10.1a71 71 0 0 1 2.36 2.93 12 12 0 0 0 2.7 2.65c.89.68 1.53 1.16 1.85 2.44.24.98-.15 2.23-.56 3.57-.6 1.9-1.26 4.04-.37 6.1 1.52 3.5 7.98 10.95 10.05 11.1h.08c1.3 0 1.34-2.13 1.4-4.84.03-1.85.07-3.94.54-5.44l.52-1.69c1-3.39 2.15-7.23 4.5-9.85 1.4-1.58 3.78-2.68 6.07-3.75 2.24-1.04 4.36-2.02 5.62-3.41 2.44-2.69 5.06-8.44 3.47-9.95-.31-.3-.83-.43-1.57-.43-1.6 0-4.08.66-6.46 1.3-1.44.38-2.8.74-3.9.94-1.34.25-2.62.69-3.87 1.12-1.73.6-3.37 1.16-5.04 1.16-.46 0-.91-.04-1.34-.13-1.63-.32-3.22-1.63-4.9-3.02-1.75-1.45-3.56-2.94-5.5-3.3-1.06-.2-2.42-.31-3.82-.31-3.7 0-7.79.71-8.19 2.71"/></mask><g mask="url(#F)"><path fill="url(#G)" d="M68.57 15.27H22v41.6h46.58v-41.6Z"/></g><mask id="H" width="43" height="40" x="23" y="16" maskUnits="userSpaceOnUse" style="mask-type:luminance"><path fill="#fff" d="M44.82 54.64c-1.6-.11-7.55-6.79-8.96-10.06-.76-1.76-.17-3.68.36-5.37.4-1.3.79-2.54.53-3.58-.34-1.36-1.03-1.89-1.91-2.55-.71-.54-1.52-1.15-2.42-2.37-.52-.71-1.31-1.66-2.22-2.75-2.45-2.94-6.16-7.39-5.83-9.02.3-1.48 3.8-2.14 7.16-2.14 1.28 0 2.5.1 3.46.27 1.7.32 3.34 1.68 4.93 2.99 1.61 1.33 3.14 2.6 4.78 2.92.43.09.88.13 1.34.13 1.65 0 3.22-.54 4.88-1.11 1.14-.4 2.32-.8 3.54-1.03a52 52 0 0 0 3.68-.9c2.2-.58 4.47-1.18 5.9-1.18.55 0 .93.09 1.12.27 1.05.98-.8 5.89-3.26 8.6-1.11 1.22-3.04 2.11-5.08 3.06-2.2 1.02-4.46 2.07-5.84 3.61-2.26 2.54-3.35 6.18-4.3 9.39l-.48 1.56c-.46 1.48-.5 3.47-.54 5.22-.04 1.99-.08 4.04-.8 4.04zm-20.95-35.8c-.38 1.87 3.12 6.07 5.94 9.45.9 1.08 1.68 2.02 2.2 2.72.94 1.28 1.82 1.94 2.52 2.47.86.66 1.43 1.09 1.72 2.27.23.9-.14 2.08-.52 3.31-.55 1.78-1.18 3.79-.34 5.72 1.41 3.27 7.45 10.23 9.4 10.37h.07c1.23 0 1.26-2 1.31-4.54.04-1.72.07-3.67.52-5.08l.47-1.57c.95-3.16 2.02-6.74 4.2-9.19 1.31-1.47 3.53-2.5 5.67-3.49 2.1-.97 4.07-1.89 5.25-3.19 2.27-2.5 4.73-7.9 3.23-9.3-.3-.28-.78-.41-1.47-.41-1.5 0-3.8.61-6.04 1.2-1.34.37-2.6.7-3.64.9-1.25.22-2.45.63-3.6 1.03-1.62.56-3.16 1.1-4.72 1.1-.42 0-.84-.05-1.24-.13-1.51-.3-3-1.52-4.56-2.81-1.63-1.36-3.33-2.76-5.15-3.1a20.3 20.3 0 0 0-3.56-.28c-3.46 0-7.28.67-7.66 2.55"/></mask><g mask="url(#H)"><path fill="url(#I)" d="M67 16.29H23.5v38.86H67V16.3Z"/></g><mask id="J" width="40" height="37" x="25" y="17" maskUnits="userSpaceOnUse" style="mask-type:luminance"><path fill="#fff" d="M44.82 52.92c-1.48-.1-7-6.3-8.31-9.33-.7-1.63-.17-3.33.34-4.97.37-1.22.73-2.37.5-3.34-.32-1.27-.97-1.76-1.8-2.38-.65-.5-1.4-1.06-2.23-2.2a64 64 0 0 0-2.07-2.56c-2.27-2.73-5.7-6.85-5.4-8.35.27-1.36 3.63-1.97 6.63-1.97 1.19 0 2.33.09 3.21.25 1.57.3 3.1 1.55 4.56 2.77 1.44 1.18 2.93 2.4 4.45 2.72.4.08.83.12 1.25.12 1.53 0 3-.5 4.53-1.04 1.06-.37 2.16-.74 3.3-.95.97-.18 2.15-.5 3.41-.83 2.04-.54 4.15-1.1 5.47-1.1.64 0 .91.13 1.03.24.98.91-.75 5.45-3.03 7.96-1.02 1.13-2.82 1.96-4.71 2.84-2.04.95-4.14 1.92-5.43 3.36-2.1 2.36-3.1 5.75-4 8.74l-.44 1.44c-.43 1.37-.46 3.22-.5 4.85-.03 1.83-.07 3.73-.73 3.73zM25.34 19.7c-.34 1.74 2.9 5.64 5.52 8.78A63 63 0 0 1 32.9 31c.88 1.2 1.69 1.81 2.34 2.3.8.6 1.32 1 1.6 2.1.2.84-.13 1.92-.5 3.07-.5 1.65-1.08 3.52-.3 5.32 1.3 3.04 6.93 9.5 8.73 9.64h.07c1.16 0 1.2-1.87 1.25-4.23.03-1.6.06-3.4.47-4.7l.44-1.46c.88-2.94 1.87-6.27 3.9-8.54 1.21-1.36 3.26-2.31 5.25-3.24 1.95-.9 3.79-1.75 4.88-2.96 2.12-2.34 4.4-7.36 3-8.67-.27-.26-.72-.38-1.38-.38-1.4 0-3.53.57-5.6 1.12-1.25.33-2.43.64-3.38.82-1.17.21-2.29.6-3.36.97-1.5.52-2.92 1-4.37 1-.39 0-.78-.03-1.14-.1-1.4-.29-2.78-1.42-4.23-2.62-1.52-1.25-3.1-2.55-4.8-2.87-.9-.17-2.08-.26-3.3-.26-3.22 0-6.78.62-7.14 2.38Z"/></mask><g mask="url(#J)"><path fill="url(#K)" d="M65.44 17.3H25v36.13h40.44V17.31Z"/></g><mask id="L" width="37" height="34" x="26" y="18" maskUnits="userSpaceOnUse" style="mask-type:luminance"><path fill="#fff" d="M44.82 51.2c-1.37-.1-6.44-5.8-7.65-8.6-.65-1.5-.16-3.07.3-4.58.36-1.12.69-2.19.46-3.1-.29-1.17-.89-1.62-1.65-2.2-.6-.46-1.3-.98-2.06-2.02-.45-.61-1.12-1.42-1.9-2.36-2.1-2.51-5.27-6.32-5-7.7.22-1.06 2.73-1.8 6.1-1.8 1.1 0 2.15.08 2.97.23 1.44.27 2.85 1.43 4.2 2.55 1.33 1.1 2.7 2.23 4.12 2.51.37.08.76.11 1.16.11 1.42 0 2.77-.46 4.2-.96.97-.33 1.98-.68 3.01-.87.9-.17 2-.46 3.17-.77 1.87-.5 3.82-1.02 5.04-1.02.58 0 .83.13.94.23.89.83-.7 5-2.8 7.31-.95 1.05-2.6 1.81-4.35 2.62-1.88.88-3.82 1.78-5 3.1-1.96 2.2-2.89 5.33-3.71 8.09l-.4 1.32c-.4 1.27-.44 2.98-.47 4.49-.03 1.6-.06 3.42-.65 3.42v.26zm-18-30.66c-.32 1.62 2.69 5.23 5.1 8.13.78.93 1.45 1.73 1.88 2.33a9.6 9.6 0 0 0 2.18 2.13c.73.55 1.21.92 1.46 1.92.19.77-.12 1.76-.45 2.82-.48 1.53-1.01 3.26-.29 4.93 1.21 2.8 6.41 8.79 8.08 8.9l.07.01c1.09 0 1.12-1.73 1.16-3.92.03-1.48.06-3.15.44-4.35.14-.42.27-.87.4-1.33.81-2.7 1.73-5.78 3.6-7.88 1.12-1.25 3.01-2.13 4.84-2.98 1.8-.84 3.5-1.63 4.52-2.75 1.96-2.16 4.07-6.8 2.77-8.02-.26-.25-.68-.36-1.29-.36-1.29 0-3.26.52-5.18 1.03-1.15.3-2.24.6-3.12.76-1.08.2-2.1.55-3.1.9-1.38.47-2.69.93-4.02.93a5.5 5.5 0 0 1-1.06-.1c-1.29-.27-2.55-1.3-3.9-2.41-1.4-1.17-2.86-2.37-4.43-2.66-.84-.16-1.93-.25-3.05-.25-2.98 0-6.28.59-6.6 2.22Z"/></mask><g mask="url(#L)"><path fill="url(#M)" d="M63.88 18.32H26.5v33.4h37.38z"/></g><mask id="N" width="34" height="31" x="28" y="19" maskUnits="userSpaceOnUse" style="mask-type:luminance"><path fill="#fff" d="M44.82 49.48c-1.25-.09-5.9-5.32-7-7.88-.59-1.36-.14-2.79.29-4.17.32-1.04.62-2.01.42-2.85-.27-1.08-.82-1.5-1.52-2.03-.56-.42-1.19-.9-1.9-1.86-.4-.56-1.02-1.3-1.73-2.15-1.92-2.3-4.83-5.8-4.58-7.05.2-.96 2.49-1.64 5.58-1.64 1 0 1.96.08 2.7.22 1.32.24 2.6 1.3 3.85 2.33 1.21 1 2.47 2.05 3.78 2.3.34.08.7.11 1.07.11 1.3 0 2.53-.42 3.84-.88.9-.3 1.82-.63 2.78-.8.82-.15 1.82-.42 2.88-.7 1.73-.46 3.51-.94 4.63-.94.53 0 .75.11.85.2.81.76-.65 4.57-2.57 6.68-.86.95-2.37 1.65-3.98 2.4-1.72.8-3.5 1.63-4.6 2.85-1.78 2-2.64 4.87-3.4 7.4l-.36 1.22c-.37 1.17-.4 2.74-.43 4.12-.02 1.46-.05 3.12-.58 3.12v.26zM28.3 21.4c-.28 1.38 1.96 4.2 4.69 7.47.7.85 1.32 1.59 1.72 2.13a8.7 8.7 0 0 0 1.99 1.96c.66.5 1.1.84 1.33 1.75.17.7-.11 1.61-.41 2.58-.44 1.4-.93 2.99-.26 4.52 1 2.35 5.78 8.07 7.42 8.19h.06c1.03 0 1.06-1.6 1.1-3.62.02-1.35.05-2.88.4-3.97l.37-1.23c.74-2.48 1.57-5.3 3.29-7.21 1.02-1.15 2.75-1.95 4.43-2.73 1.65-.77 3.21-1.5 4.14-2.52 1.8-2 3.74-6.27 2.54-7.4-.24-.22-.63-.32-1.2-.32-1.18 0-3 .48-4.76.95-1.05.28-2.04.54-2.84.69-1 .18-1.94.5-2.86.82a11.5 11.5 0 0 1-3.67.85c-.33 0-.66-.03-.97-.1-1.18-.23-2.34-1.18-3.56-2.2-1.29-1.06-2.62-2.17-4.07-2.44-.77-.14-1.77-.22-2.8-.22-2.74 0-5.77.54-6.08 2.05"/></mask><g mask="url(#N)"><path fill="url(#O)" d="M62.3 19.34H28.03V50h34.29V19.34Z"/></g><mask id="P" width="31" height="29" x="29" y="20" maskUnits="userSpaceOnUse" style="mask-type:luminance"><path fill="#fff" d="M44.82 47.76c-1.14-.08-5.34-4.83-6.34-7.15-.53-1.23-.13-2.53.26-3.78.29-.94.57-1.83.38-2.6-.25-1-.78-1.4-1.4-1.86a7.4 7.4 0 0 1-1.7-1.68c-.38-.5-.94-1.18-1.58-1.96-1.75-2.1-4.39-5.26-4.16-6.39.17-.87 2.25-1.47 5.04-1.47.91 0 1.78.07 2.46.2 1.2.21 2.36 1.18 3.49 2.1 1.1.93 2.25 1.87 3.44 2.11.32.07.65.1.98.1 1.2 0 2.32-.4 3.51-.8.81-.28 1.65-.57 2.51-.73.75-.14 1.66-.38 2.63-.64 1.56-.42 3.18-.85 4.2-.85.47 0 .67.1.75.18.72.66-.64 4.16-2.33 6.03-.78.86-2.15 1.5-3.6 2.17-1.58.73-3.2 1.49-4.2 2.6-1.63 1.83-2.41 4.45-3.1 6.76l-.33 1.1c-.34 1.06-.36 2.49-.39 3.75-.02 1.25-.05 2.8-.5 2.8v.26zM29.78 22.24c-.26 1.27 1.78 3.84 4.26 6.82.65.77 1.2 1.44 1.57 1.93.68.93 1.3 1.4 1.8 1.79.61.45 1.01.75 1.21 1.57.16.63-.1 1.46-.37 2.33-.4 1.28-.85 2.73-.24 4.13.92 2.14 5.27 7.35 6.77 7.45h.06c.95 0 .98-1.45 1.01-3.3.03-1.23.05-2.62.37-3.62l.33-1.1c.67-2.25 1.44-4.81 2.99-6.55.93-1.04 2.5-1.78 4.03-2.49 1.5-.7 2.92-1.35 3.77-2.28 1.68-1.86 3.42-5.7 2.3-6.75-.22-.21-.58-.32-1.1-.32-1.08 0-2.74.44-4.33.87-.96.25-1.86.5-2.6.63-.9.16-1.75.46-2.58.74-1.15.4-2.24.78-3.34.78-.3 0-.6-.03-.88-.09-1.06-.21-2.1-1.08-3.22-2-1.18-.97-2.4-1.97-3.72-2.22-.72-.13-1.64-.21-2.6-.21-2.48 0-5.21.52-5.49 1.89"/></mask><g mask="url(#P)"><path fill="url(#Q)" d="M60.76 20.35H29.52v27.92h31.24z"/></g><mask id="R" width="28" height="26" x="31" y="21" maskUnits="userSpaceOnUse" style="mask-type:luminance"><path fill="#fff" d="M44.82 46.03c-.98-.06-4.81-4.38-5.69-6.4-.47-1.11-.11-2.27.24-3.4.26-.85.51-1.65.34-2.35-.22-.9-.7-1.27-1.26-1.7-.45-.33-.96-.72-1.53-1.5a43 43 0 0 0-1.44-1.77c-1.56-1.87-3.93-4.72-3.72-5.72.15-.77 2-1.3 4.52-1.3.81 0 1.6.06 2.2.17 1.06.2 2.1 1.06 3.12 1.9 1 .83 2.04 1.68 3.12 1.9.28.05.58.08.88.08 1.07 0 2.09-.34 3.16-.72.73-.25 1.49-.5 2.27-.65.67-.12 1.48-.34 2.35-.57 1.4-.38 2.87-.77 3.78-.77.42 0 .6.08.67.15.63.6-.59 3.72-2.1 5.4-.7.77-1.94 1.34-3.25 1.95-1.42.66-2.88 1.34-3.78 2.34-1.46 1.64-2.16 3.99-2.78 6.06l-.3 1.01c-.3.97-.34 2.26-.36 3.4-.02 1.1-.04 2.5-.42 2.5v.25zM31.25 23.1c-.23 1.15 1.53 3.37 3.84 6.15.58.7 1.09 1.3 1.41 1.75.62.83 1.18 1.26 1.64 1.6.54.41.9.68 1.07 1.41.14.56-.09 1.3-.33 2.09-.36 1.15-.76 2.46-.21 3.73.83 1.94 4.76 6.63 6.11 6.72h.06c.88 0 .9-1.32.93-3 .02-1.1.05-2.35.33-3.24l.31-1.03c.6-2.01 1.29-4.3 2.67-5.86.83-.93 2.25-1.58 3.62-2.22 1.35-.63 2.63-1.22 3.4-2.07 1.53-1.68 3.1-5.16 2.08-6.11-.2-.2-.54-.29-1.02-.29-.98 0-2.47.4-3.91.79-.86.22-1.67.44-2.32.56-.81.15-1.59.42-2.33.67-1.04.36-2.01.7-3 .7-.27 0-.53-.03-.78-.08-.95-.2-1.9-.97-2.9-1.8-1.06-.87-2.15-1.78-3.35-2-.65-.12-1.48-.19-2.34-.19-2.24 0-4.73.47-4.98 1.72"/></mask><g mask="url(#R)"><path fill="url(#S)" d="M59.2 21.37H31.02v25.18H59.2z"/></g><mask id="T" width="26" height="23" x="32" y="22" maskUnits="userSpaceOnUse" style="mask-type:luminance"><path fill="#fff" d="M44.82 44.31c-.87-.06-4.26-3.88-5.03-5.68-.42-.97-.1-2 .2-3 .25-.75.47-1.47.32-2.1-.2-.81-.64-1.14-1.14-1.52-.4-.3-.85-.64-1.36-1.33-.3-.4-.75-.95-1.27-1.58-1.39-1.67-3.48-4.18-3.3-5.06.13-.66 1.8-1.14 3.98-1.14.73 0 1.42.06 1.96.16.94.17 1.86.94 2.76 1.68s1.82 1.5 2.78 1.7c.25.05.52.08.79.08.96 0 1.87-.32 2.82-.65a13.5 13.5 0 0 1 2-.58c.61-.11 1.34-.3 2.12-.51 1.25-.34 2.54-.68 3.34-.68.38 0 .52.08.57.13.51.47-.42 3.15-1.87 4.75-.62.68-1.71 1.2-2.87 1.73-1.26.59-2.57 1.2-3.37 2.1-1.3 1.46-1.93 3.55-2.48 5.4l-.27.9c-.27.85-.3 2-.32 3-.01.88-.04 2.2-.35 2.2v.26zM32.73 23.94c-.2 1.04 1.35 3.01 3.41 5.48.52.62.97 1.16 1.26 1.56a6.5 6.5 0 0 0 1.46 1.44c.48.36.8.6.95 1.23.12.5-.08 1.15-.3 1.84-.32 1.03-.68 2.2-.2 3.34.77 1.77 4.23 5.9 5.47 6h.05c.81 0 .84-1.2.87-2.7.01-.98.04-2.09.28-2.88.1-.28.18-.59.28-.9.53-1.8 1.14-3.83 2.37-5.2.73-.83 1.99-1.42 3.2-1.98 1.2-.56 2.35-1.09 3.03-1.85 1.37-1.5 2.77-4.6 1.85-5.46-.19-.18-.49-.27-.92-.27-.87 0-2.2.35-3.47.7-.77.2-1.5.4-2.08.5-.72.13-1.4.37-2.08.6-.91.32-1.78.62-2.65.62-.24 0-.47-.03-.7-.07-.83-.17-1.66-.86-2.54-1.59-.95-.78-1.93-1.6-3-1.8-.58-.1-1.31-.16-2.08-.16-2 0-4.23.42-4.46 1.55"/></mask><g mask="url(#T)"><path fill="url(#U)" d="M57.63 22.39h-25.1v22.43h25.1V22.4Z"/></g><mask id="V" width="22" height="21" x="34" y="23" maskUnits="userSpaceOnUse" style="mask-type:luminance"><path fill="#fff" d="M44.82 42.6c-.7-.06-3.64-3.27-4.37-4.96-.37-.84-.09-1.74.18-2.6.2-.67.4-1.3.27-1.86-.18-.72-.56-1.01-1-1.35a5.1 5.1 0 0 1-1.19-1.15 24 24 0 0 0-1.11-1.38c-1.14-1.37-3.04-3.65-2.89-4.41.11-.56 1.57-.97 3.47-.97.62 0 1.23.05 1.7.14.8.15 1.62.82 2.4 1.46.78.65 1.6 1.32 2.44 1.5.23.04.46.06.7.06.85 0 1.64-.27 2.48-.56a12 12 0 0 1 1.75-.51c.53-.1 1.18-.27 1.86-.45 1.09-.29 2.2-.59 2.9-.59.34 0 .45.07.49.1.43.4-.42 2.77-1.64 4.12-.54.6-1.5 1.03-2.5 1.5-1.11.52-2.26 1.05-2.97 1.84-1.14 1.29-1.7 3.13-2.18 4.75l-.23.77c-.24.76-.26 1.76-.27 2.65-.02.7-.04 1.9-.28 1.9v.25l-.01-.26ZM34.21 24.78c-.19.92 1.19 2.66 3 4.83.45.54.84 1.01 1.1 1.36.48.65.92.99 1.28 1.26.42.32.68.51.81 1.06.1.42-.07.99-.26 1.59-.28.9-.6 1.94-.16 2.95.67 1.55 3.7 5.18 4.8 5.26h.05c.74 0 .76-1.06.79-2.4a9.8 9.8 0 0 1 .48-3.27c.47-1.57 1-3.36 2.08-4.56.63-.72 1.73-1.22 2.79-1.72 1.06-.49 2.06-.95 2.67-1.62 1.2-1.32 2.42-4.07 1.6-4.83-.17-.16-.44-.24-.82-.24-.77 0-1.93.3-3.04.6-.67.18-1.3.35-1.82.45-.64.11-1.24.32-1.82.52-.8.28-1.56.54-2.32.54q-.3 0-.6-.06c-.72-.14-1.45-.74-2.22-1.38-.83-.69-1.69-1.4-2.63-1.57-.5-.1-1.14-.14-1.8-.14-.86 0-3.7.1-3.96 1.37"/></mask><g mask="url(#V)"><path fill="url(#W)" d="M56.06 23.42H34.02V43.1h22.04z"/></g><mask id="X" width="20" height="18" x="35" y="24" maskUnits="userSpaceOnUse" style="mask-type:luminance"><path fill="#fff" d="M44.82 40.87c-.58-.04-3.1-2.78-3.72-4.23-.3-.7-.07-1.46.16-2.19.18-.58.35-1.13.23-1.62-.16-.63-.49-.88-.87-1.17a4.4 4.4 0 0 1-1-.99l-.97-1.2c-.97-1.16-2.59-3.1-2.47-3.73.1-.45 1.35-.8 2.92-.8.55 0 1.07.04 1.47.12.69.13 1.38.7 2.05 1.25s1.37 1.13 2.1 1.28c.2.04.4.06.62.06.72 0 1.44-.25 2.13-.49.48-.17.98-.34 1.5-.43.45-.09 1-.23 1.58-.39.94-.25 1.9-.5 2.5-.5.27 0 .36.05.37.07.36.34-.36 2.34-1.4 3.48a7 7 0 0 1-2.13 1.28c-.95.45-1.94.9-2.55 1.59-1 1.11-1.46 2.7-1.88 4.09l-.2.65a8.7 8.7 0 0 0-.24 2.28c0 .56-.03 1.5-.19 1.59v.25zm-9.14-15.23c-.16.8 1.02 2.3 2.58 4.16.39.47.72.87.94 1.17.42.57.8.86 1.11 1.1.36.26.57.43.68.88.1.35-.06.84-.22 1.35-.24.78-.52 1.67-.14 2.55.58 1.33 3.2 4.46 4.15 4.53h.04c.67 0 .7-.92.71-2.09.02-.73.03-1.55.22-2.13l.2-.67c.4-1.34.85-2.86 1.77-3.9a7.5 7.5 0 0 1 2.39-1.46c.9-.42 1.76-.82 2.29-1.4.94-1.04 2.14-3.46 1.37-4.19q-.225-.21-.72-.21c-.67 0-1.66.26-2.63.52-.57.15-1.11.3-1.55.38-.55.1-1.07.28-1.57.45-.68.24-1.32.46-1.96.46-.18 0-.35-.02-.51-.05a5 5 0 0 1-1.89-1.18c-.71-.59-1.46-1.2-2.27-1.35a9 9 0 0 0-1.57-.13c-.74 0-3.19.09-3.42 1.21"/></mask><g mask="url(#X)"><path fill="url(#Y)" d="M54.55 24.43H35.53v16.95h19.02z"/></g><mask id="Z" width="16" height="15" x="37" y="25" maskUnits="userSpaceOnUse" style="mask-type:luminance"><path fill="#fff" d="M44.82 39.15v.25zm-3.06-3.5c-.25-.57-.06-1.2.13-1.8.15-.49.3-.95.2-1.37-.14-.54-.42-.75-.75-1-.24-.18-.52-.4-.83-.81-.19-.26-.47-.6-.8-.99-.75-.9-2.15-2.58-2.04-3.09.06-.31.97-.63 2.38-.63.45 0 .89.04 1.22.1.56.1 1.13.57 1.68 1.03.57.46 1.16.95 1.78 1.07.17.04.34.05.52.05.61 0 1.21-.2 1.79-.4.4-.14.82-.29 1.24-.36.38-.07.84-.2 1.33-.33.77-.2 1.57-.42 2.06-.42.23 0 .29.05.29.06.26.24-.29 1.86-1.17 2.84a5.8 5.8 0 0 1-1.77 1.06 6.5 6.5 0 0 0-2.13 1.32c-.84.94-1.25 2.32-1.58 3.43l-.17.55a7.3 7.3 0 0 0-.2 1.9c0 .46-.02 1.15-.13 1.29-.49-.07-2.55-2.34-3.05-3.5m-4.6-9.16c-.13.7.85 1.95 2.16 3.52.32.38.6.71.78.96.35.48.68.72.93.92.3.22.47.35.56.71.07.28-.06.68-.19 1.1-.2.66-.43 1.41-.11 2.15.5 1.15 2.67 3.75 3.5 3.8h.03c.6 0 .62-.82.64-1.78 0-.6.02-1.28.17-1.76l.17-.56c.33-1.11.7-2.38 1.47-3.23a6.2 6.2 0 0 1 1.97-1.2 6.1 6.1 0 0 0 1.93-1.18c.79-.88 1.8-2.93 1.14-3.56-.14-.12-.35-.19-.64-.19-.56 0-1.39.23-2.2.44-.47.13-.92.25-1.28.32-.46.08-.9.23-1.32.38-.71.24-1.4.46-2.03.33-.5-.1-1.02-.52-1.56-.97-.6-.5-1.23-1-1.92-1.13-.36-.07-.83-.1-1.3-.1-.64 0-2.7.07-2.9 1.03"/></mask><g mask="url(#Z)"><path fill="url(#aa)" d="M52.97 25.45H37.03v14.2h15.94z"/></g><mask id="ab" width="14" height="12" x="38" y="26" maskUnits="userSpaceOnUse" style="mask-type:luminance"><path fill="#fff" d="M42.41 34.66c-.19-.44-.04-.93.11-1.4.13-.4.24-.78.16-1.12-.11-.46-.36-.64-.62-.84-.19-.14-.4-.31-.65-.64l-.65-.8c-.55-.66-1.7-2.04-1.62-2.41.05-.23.77-.47 1.86-.47.36 0 .7.03.97.08.43.08.88.45 1.32.8.46.39.93.78 1.44.88a3.7 3.7 0 0 0 1.89-.29c.31-.11.64-.22.97-.29.3-.05.68-.15 1.07-.25.59-.16 1.25-.34 1.64-.34.14 0 .2.03.2.03.16.16-.24 1.41-.95 2.2-.29.33-.83.57-1.4.84-.63.3-1.3.6-1.72 1.07a7.3 7.3 0 0 0-1.28 2.78l-.12.42a6 6 0 0 0-.17 1.54c0 .33-.01.82-.08.97-.44-.15-1.98-1.87-2.37-2.76m-3.77-7.32c-.11.58.64 1.54 1.73 2.85.25.3.48.57.63.77.28.4.55.59.76.75.23.17.35.27.42.55.05.2-.04.52-.15.85-.16.53-.35 1.14-.09 1.75.37.84 2.14 3.03 2.84 3.08h.04c.53 0 .54-.69.55-1.48.01-.48.02-1.02.14-1.4l.13-.42c.27-.9.57-1.91 1.17-2.59.35-.39.97-.67 1.56-.95.62-.29 1.2-.56 1.56-.95.63-.7 1.48-2.38.91-2.92-.12-.11-.3-.17-.54-.17-.45 0-1.12.18-1.77.36-.38.1-.74.2-1.03.24-.37.07-.72.2-1.05.3a3.2 3.2 0 0 1-1.61.28c-.4-.08-.8-.41-1.23-.76-.48-.4-.98-.82-1.55-.93a6 6 0 0 0-1.06-.08c-.65 0-2.2.08-2.36.87"/></mask><g mask="url(#ab)"><path fill="url(#ac)" d="M51.4 26.47H38.54v11.47H51.4z"/></g><mask id="ad" width="10" height="10" x="40" y="27" maskUnits="userSpaceOnUse" style="mask-type:luminance"><path fill="#fff" d="M43.07 33.67c-.13-.3-.02-.67.08-1.01.1-.3.19-.6.12-.88-.09-.36-.29-.51-.49-.66-.13-.1-.3-.22-.47-.46a13 13 0 0 0-.48-.6c-.37-.44-1.25-1.5-1.21-1.77.02-.08.42-.3 1.33-.3.27 0 .52.03.71.06.31.06.64.33.97.6.35.29.7.59 1.1.66.48.1.98-.05 1.44-.21.24-.08.49-.17.74-.21l.79-.2c.44-.11.94-.25 1.22-.25h.1c.06.2-.22 1.03-.7 1.57-.22.23-.61.42-1.03.61a4 4 0 0 0-1.32.82c-.5.57-.75 1.4-.95 2.07l-.11.35c-.11.35-.12.79-.13 1.18 0 .2 0 .48-.03.63a6.7 6.7 0 0 1-1.68-2m-2.95-5.48c-.1.46.49 1.2 1.32 2.2l.46.57c.22.3.42.45.58.57.17.13.25.19.29.38.04.14-.03.36-.1.6-.13.4-.28.88-.07 1.36.28.66 1.62 2.3 2.18 2.35h.03c.46 0 .47-.57.49-1.17 0-.36.01-.76.1-1.04l.1-.36c.2-.65.42-1.39.85-1.87.26-.28.71-.5 1.15-.7.47-.21.91-.42 1.2-.73.5-.56 1.14-1.84.67-2.28-.1-.09-.25-.14-.45-.14-.35 0-.86.14-1.35.27-.28.08-.54.15-.75.19-.29.05-.56.14-.81.23-.42.14-.8.27-1.17.2a2.4 2.4 0 0 1-.9-.57c-.36-.3-.74-.62-1.19-.7a4.5 4.5 0 0 0-.8-.06c-.5 0-1.7.07-1.83.7"/></mask><g mask="url(#ad)"><path fill="url(#ae)" d="M49.84 27.49h-9.81v8.73h9.8v-8.73Z"/></g><mask id="af" width="8" height="7" x="41" y="28" maskUnits="userSpaceOnUse" style="mask-type:luminance"><path fill="#fff" d="M43.72 32.68c-.07-.18 0-.4.06-.62.07-.2.14-.42.08-.63-.06-.26-.22-.38-.35-.48-.1-.07-.2-.15-.3-.3l-.33-.4c-.23-.28-.77-.93-.8-1.08.05-.05.3-.16.82-.16.17 0 .34.02.46.04.18.03.4.2.6.38.24.2.5.4.78.46.36.08.7-.04 1-.15l.48-.14c.15-.02.35-.08.55-.13.26-.07.55-.14.76-.16-.02.2-.2.62-.45.9-.13.14-.4.27-.66.39-.33.15-.68.32-.9.57-.35.4-.52.96-.66 1.41l-.07.24c-.08.24-.08.54-.09.8v.27a4.7 4.7 0 0 1-.98-1.21m-2.12-3.64c-.07.35.3.83.89 1.54.12.15.24.28.3.38.16.2.3.31.41.4.12.08.15.1.17.2a1 1 0 0 1-.07.35c-.1.28-.2.62-.05.97.19.43 1.1 1.58 1.53 1.61h.03c.39 0 .4-.45.4-.86 0-.23.01-.49.07-.66l.07-.25c.13-.42.27-.9.55-1.21.16-.18.45-.32.74-.45.3-.14.62-.29.82-.5.29-.32.84-1.27.45-1.64q-.12-.12-.36-.12c-.24 0-.58.1-.9.18-.2.05-.38.1-.52.12-.2.04-.38.1-.55.16-.27.1-.51.18-.73.14-.17-.04-.37-.2-.56-.36a2 2 0 0 0-.84-.5 3 3 0 0 0-.55-.03c-.45 0-1.21.07-1.3.53"/></mask><g mask="url(#af)"><path fill="url(#ag)" d="M48.3 28.5h-6.77v5.99h6.77v-5.98Z"/></g><mask id="ah" width="4" height="4" x="43" y="29" maskUnits="userSpaceOnUse" style="mask-type:luminance"><path fill="#fff" d="M44.38 31.68c-.02-.04 0-.13.03-.21.04-.12.08-.25.05-.38a.53.53 0 0 0-.23-.32c-.04-.03-.08-.06-.12-.12a5 5 0 0 1-.47-.6c.1-.02.29-.03.42 0 .06 0 .16.09.24.16.13.1.27.22.45.26.2.04.4-.02.55-.08.08-.02.15-.05.24-.06l.28-.07.16-.04a1 1 0 0 1-.13.2c-.05.05-.18.1-.29.16-.17.08-.36.17-.5.32-.2.22-.28.52-.35.76l-.04.1-.04.28c-.1-.12-.21-.27-.25-.36m-1.3-1.79c-.05.23.14.5.48.89l.14.17c.08.12.17.18.26.24l-.03.12c-.05.15-.11.36-.02.58.09.2.57.86.87.88h.02c.32 0 .33-.36.33-.55 0-.1 0-.23.03-.3l.04-.11c.06-.2.13-.44.24-.57.07-.07.2-.14.33-.2.17-.07.34-.15.46-.28.15-.17.5-.73.21-1-.15-.13-.44-.08-.76 0l-.23.07c-.1.01-.21.05-.31.08s-.18.06-.3.06c-.04 0-.14-.09-.21-.15a1.07 1.07 0 0 0-.48-.27 1.7 1.7 0 0 0-.3-.03c-.46 0-.73.13-.77.37"/></mask><g mask="url(#ah)"><path fill="url(#ai)" d="M46.72 29.52h-3.7v3.25h3.7z"/></g></g><defs><linearGradient id="c" x1=".18" x2="89.89" y1="41.34" y2="41.34" gradientUnits="userSpaceOnUse"><stop stop-color="#6C3672"/><stop offset=".06" stop-color="#6D5787"/><stop offset=".15" stop-color="#6E7EA0"/><stop offset=".23" stop-color="#6F9DB3"/><stop offset=".31" stop-color="#70B3C1"/><stop offset=".39" stop-color="#70C0CA"/><stop offset=".46" stop-color="#71C5CD"/><stop offset=".62" stop-color="#9EBA8E"/><stop offset=".8" stop-color="#CAB052"/><stop offset=".93" stop-color="#E6AA2C"/><stop offset="1" stop-color="#F1A81E"/></linearGradient><linearGradient id="e" x1="1.67" x2="88.42" y1="41" y2="41" gradientUnits="userSpaceOnUse"><stop stop-color="#6C3672"/><stop offset=".06" stop-color="#6D5787"/><stop offset=".15" stop-color="#6E7EA0"/><stop offset=".23" stop-color="#6F9DB3"/><stop offset=".31" stop-color="#70B3C1"/><stop offset=".39" stop-color="#70C0CA"/><stop offset=".46" stop-color="#71C5CD"/><stop offset=".62" stop-color="#9EBA8E"/><stop offset=".8" stop-color="#CAB052"/><stop offset=".93" stop-color="#E6AA2C"/><stop offset="1" stop-color="#F1A81E"/></linearGradient><linearGradient id="g" x1="3.11" x2="86.88" y1="40.65" y2="40.65" gradientUnits="userSpaceOnUse"><stop stop-color="#6C3672"/><stop offset=".06" stop-color="#6D5787"/><stop offset=".15" stop-color="#6E7EA0"/><stop offset=".23" stop-color="#6F9DB3"/><stop offset=".31" stop-color="#70B3C1"/><stop offset=".39" stop-color="#70C0CA"/><stop offset=".46" stop-color="#71C5CD"/><stop offset=".62" stop-color="#9EBA8E"/><stop offset=".8" stop-color="#CAB052"/><stop offset=".93" stop-color="#E6AA2C"/><stop offset="1" stop-color="#F1A81E"/></linearGradient><linearGradient id="i" x1="4.67" x2="85.47" y1="40.29" y2="40.29" gradientUnits="userSpaceOnUse"><stop stop-color="#6C3672"/><stop offset=".06" stop-color="#6D5787"/><stop offset=".15" stop-color="#6E7EA0"/><stop offset=".23" stop-color="#6F9DB3"/><stop offset=".31" stop-color="#70B3C1"/><stop offset=".39" stop-color="#70C0CA"/><stop offset=".46" stop-color="#71C5CD"/><stop offset=".62" stop-color="#9EBA8E"/><stop offset=".8" stop-color="#CAB052"/><stop offset=".93" stop-color="#E6AA2C"/><stop offset="1" stop-color="#F1A81E"/></linearGradient><linearGradient id="k" x1="6.03" x2="83.86" y1="39.94" y2="39.94" gradientUnits="userSpaceOnUse"><stop stop-color="#6C3672"/><stop offset=".06" stop-color="#6D5787"/><stop offset=".15" stop-color="#6E7EA0"/><stop offset=".23" stop-color="#6F9DB3"/><stop offset=".31" stop-color="#70B3C1"/><stop offset=".39" stop-color="#70C0CA"/><stop offset=".46" stop-color="#71C5CD"/><stop offset=".62" stop-color="#9EBA8E"/><stop offset=".8" stop-color="#CAB052"/><stop offset=".93" stop-color="#E6AA2C"/><stop offset="1" stop-color="#F1A81E"/></linearGradient><linearGradient id="m" x1="7.62" x2="82.44" y1="39.59" y2="39.59" gradientUnits="userSpaceOnUse"><stop stop-color="#6C3672"/><stop offset=".06" stop-color="#6D5787"/><stop offset=".15" stop-color="#6E7EA0"/><stop offset=".23" stop-color="#6F9DB3"/><stop offset=".31" stop-color="#70B3C1"/><stop offset=".39" stop-color="#70C0CA"/><stop offset=".46" stop-color="#71C5CD"/><stop offset=".62" stop-color="#9EBA8E"/><stop offset=".8" stop-color="#CAB052"/><stop offset=".93" stop-color="#E6AA2C"/><stop offset="1" stop-color="#F1A81E"/></linearGradient><linearGradient id="o" x1="9.06" x2="80.91" y1="39.24" y2="39.24" gradientUnits="userSpaceOnUse"><stop stop-color="#6C3672"/><stop offset=".06" stop-color="#6D5787"/><stop offset=".15" stop-color="#6E7EA0"/><stop offset=".23" stop-color="#6F9DB3"/><stop offset=".31" stop-color="#70B3C1"/><stop offset=".39" stop-color="#70C0CA"/><stop offset=".46" stop-color="#71C5CD"/><stop offset=".62" stop-color="#9EBA8E"/><stop offset=".8" stop-color="#CAB052"/><stop offset=".93" stop-color="#E6AA2C"/><stop offset="1" stop-color="#F1A81E"/></linearGradient><linearGradient id="q" x1="10.54" x2="79.42" y1="38.89" y2="38.89" gradientUnits="userSpaceOnUse"><stop stop-color="#6C3672"/><stop offset=".06" stop-color="#6D5787"/><stop offset=".15" stop-color="#6E7EA0"/><stop offset=".23" stop-color="#6F9DB3"/><stop offset=".31" stop-color="#70B3C1"/><stop offset=".39" stop-color="#70C0CA"/><stop offset=".46" stop-color="#71C5CD"/><stop offset=".62" stop-color="#9EBA8E"/><stop offset=".8" stop-color="#CAB052"/><stop offset=".93" stop-color="#E6AA2C"/><stop offset="1" stop-color="#F1A81E"/></linearGradient><linearGradient id="s" x1="11.99" x2="77.91" y1="38.53" y2="38.53" gradientUnits="userSpaceOnUse"><stop stop-color="#6C3672"/><stop offset=".06" stop-color="#6D5787"/><stop offset=".15" stop-color="#6E7EA0"/><stop offset=".23" stop-color="#6F9DB3"/><stop offset=".31" stop-color="#70B3C1"/><stop offset=".39" stop-color="#70C0CA"/><stop offset=".46" stop-color="#71C5CD"/><stop offset=".62" stop-color="#9EBA8E"/><stop offset=".8" stop-color="#CAB052"/><stop offset=".93" stop-color="#E6AA2C"/><stop offset="1" stop-color="#F1A81E"/></linearGradient><linearGradient id="u" x1="13.53" x2="76.48" y1="38.18" y2="38.18" gradientUnits="userSpaceOnUse"><stop stop-color="#6C3672"/><stop offset=".06" stop-color="#6D5787"/><stop offset=".15" stop-color="#6E7EA0"/><stop offset=".23" stop-color="#6F9DB3"/><stop offset=".31" stop-color="#70B3C1"/><stop offset=".39" stop-color="#70C0CA"/><stop offset=".46" stop-color="#71C5CD"/><stop offset=".62" stop-color="#9EBA8E"/><stop offset=".8" stop-color="#CAB052"/><stop offset=".93" stop-color="#E6AA2C"/><stop offset="1" stop-color="#F1A81E"/></linearGradient><linearGradient id="w" x1="14.95" x2="74.94" y1="37.83" y2="37.83" gradientUnits="userSpaceOnUse"><stop stop-color="#6C3672"/><stop offset=".06" stop-color="#6D5787"/><stop offset=".15" stop-color="#6E7EA0"/><stop offset=".23" stop-color="#6F9DB3"/><stop offset=".31" stop-color="#70B3C1"/><stop offset=".39" stop-color="#70C0CA"/><stop offset=".46" stop-color="#71C5CD"/><stop offset=".62" stop-color="#9EBA8E"/><stop offset=".8" stop-color="#CAB052"/><stop offset=".93" stop-color="#E6AA2C"/><stop offset="1" stop-color="#F1A81E"/></linearGradient><linearGradient id="y" x1="16.45" x2="73.45" y1="37.48" y2="37.48" gradientUnits="userSpaceOnUse"><stop stop-color="#6C3672"/><stop offset=".06" stop-color="#6D5787"/><stop offset=".15" stop-color="#6E7EA0"/><stop offset=".23" stop-color="#6F9DB3"/><stop offset=".31" stop-color="#70B3C1"/><stop offset=".39" stop-color="#70C0CA"/><stop offset=".46" stop-color="#71C5CD"/><stop offset=".62" stop-color="#9EBA8E"/><stop offset=".8" stop-color="#CAB052"/><stop offset=".93" stop-color="#E6AA2C"/><stop offset="1" stop-color="#F1A81E"/></linearGradient><linearGradient id="A" x1="17.95" x2="71.98" y1="37.13" y2="37.13" gradientUnits="userSpaceOnUse"><stop stop-color="#6C3672"/><stop offset=".06" stop-color="#6D5787"/><stop offset=".15" stop-color="#6E7EA0"/><stop offset=".23" stop-color="#6F9DB3"/><stop offset=".31" stop-color="#70B3C1"/><stop offset=".39" stop-color="#70C0CA"/><stop offset=".46" stop-color="#71C5CD"/><stop offset=".62" stop-color="#9EBA8E"/><stop offset=".8" stop-color="#CAB052"/><stop offset=".93" stop-color="#E6AA2C"/><stop offset="1" stop-color="#F1A81E"/></linearGradient><linearGradient id="C" x1="14.81" x2="65.86" y1="31.74" y2="31.74" gradientUnits="userSpaceOnUse"><stop stop-color="#6C3672"/><stop offset=".06" stop-color="#6D5787"/><stop offset=".15" stop-color="#6E7EA0"/><stop offset=".23" stop-color="#6F9DB3"/><stop offset=".31" stop-color="#70B3C1"/><stop offset=".39" stop-color="#70C0CA"/><stop offset=".46" stop-color="#71C5CD"/><stop offset=".62" stop-color="#9EBA8E"/><stop offset=".8" stop-color="#CAB052"/><stop offset=".93" stop-color="#E6AA2C"/><stop offset="1" stop-color="#F1A81E"/></linearGradient><linearGradient id="E" x1="20.89" x2="68.97" y1="36.43" y2="36.43" gradientUnits="userSpaceOnUse"><stop stop-color="#6C3672"/><stop offset=".06" stop-color="#6D5787"/><stop offset=".15" stop-color="#6E7EA0"/><stop offset=".23" stop-color="#6F9DB3"/><stop offset=".31" stop-color="#70B3C1"/><stop offset=".39" stop-color="#70C0CA"/><stop offset=".46" stop-color="#71C5CD"/><stop offset=".62" stop-color="#9EBA8E"/><stop offset=".8" stop-color="#CAB052"/><stop offset=".93" stop-color="#E6AA2C"/><stop offset="1" stop-color="#F1A81E"/></linearGradient><linearGradient id="G" x1="22.39" x2="67.47" y1="36.07" y2="36.07" gradientUnits="userSpaceOnUse"><stop stop-color="#6C3672"/><stop offset=".06" stop-color="#6D5787"/><stop offset=".15" stop-color="#6E7EA0"/><stop offset=".23" stop-color="#6F9DB3"/><stop offset=".31" stop-color="#70B3C1"/><stop offset=".39" stop-color="#70C0CA"/><stop offset=".46" stop-color="#71C5CD"/><stop offset=".62" stop-color="#9EBA8E"/><stop offset=".8" stop-color="#CAB052"/><stop offset=".93" stop-color="#E6AA2C"/><stop offset="1" stop-color="#F1A81E"/></linearGradient><linearGradient id="I" x1="23.82" x2="65.96" y1="35.72" y2="35.72" gradientUnits="userSpaceOnUse"><stop stop-color="#6C3672"/><stop offset=".06" stop-color="#6D5787"/><stop offset=".15" stop-color="#6E7EA0"/><stop offset=".23" stop-color="#6F9DB3"/><stop offset=".31" stop-color="#70B3C1"/><stop offset=".39" stop-color="#70C0CA"/><stop offset=".46" stop-color="#71C5CD"/><stop offset=".62" stop-color="#9EBA8E"/><stop offset=".8" stop-color="#CAB052"/><stop offset=".93" stop-color="#E6AA2C"/><stop offset="1" stop-color="#F1A81E"/></linearGradient><linearGradient id="K" x1="25.32" x2="64.47" y1="35.37" y2="35.37" gradientUnits="userSpaceOnUse"><stop stop-color="#6C3672"/><stop offset=".06" stop-color="#6D5787"/><stop offset=".15" stop-color="#6E7EA0"/><stop offset=".23" stop-color="#6F9DB3"/><stop offset=".31" stop-color="#70B3C1"/><stop offset=".39" stop-color="#70C0CA"/><stop offset=".46" stop-color="#71C5CD"/><stop offset=".62" stop-color="#9EBA8E"/><stop offset=".8" stop-color="#CAB052"/><stop offset=".93" stop-color="#E6AA2C"/><stop offset="1" stop-color="#F1A81E"/></linearGradient><linearGradient id="M" x1="26.78" x2="62.96" y1="35.02" y2="35.02" gradientUnits="userSpaceOnUse"><stop stop-color="#6C3672"/><stop offset=".06" stop-color="#6D5787"/><stop offset=".15" stop-color="#6E7EA0"/><stop offset=".23" stop-color="#6F9DB3"/><stop offset=".31" stop-color="#70B3C1"/><stop offset=".39" stop-color="#70C0CA"/><stop offset=".46" stop-color="#71C5CD"/><stop offset=".62" stop-color="#9EBA8E"/><stop offset=".8" stop-color="#CAB052"/><stop offset=".93" stop-color="#E6AA2C"/><stop offset="1" stop-color="#F1A81E"/></linearGradient><linearGradient id="O" x1="28.27" x2="61.46" y1="34.67" y2="34.67" gradientUnits="userSpaceOnUse"><stop stop-color="#6C3672"/><stop offset=".06" stop-color="#6D5787"/><stop offset=".15" stop-color="#6E7EA0"/><stop offset=".23" stop-color="#6F9DB3"/><stop offset=".31" stop-color="#70B3C1"/><stop offset=".39" stop-color="#70C0CA"/><stop offset=".46" stop-color="#71C5CD"/><stop offset=".62" stop-color="#9EBA8E"/><stop offset=".8" stop-color="#CAB052"/><stop offset=".93" stop-color="#E6AA2C"/><stop offset="1" stop-color="#F1A81E"/></linearGradient><linearGradient id="Q" x1="29.74" x2="59.98" y1="34.31" y2="34.31" gradientUnits="userSpaceOnUse"><stop stop-color="#6C3672"/><stop offset=".06" stop-color="#6D5787"/><stop offset=".15" stop-color="#6E7EA0"/><stop offset=".23" stop-color="#6F9DB3"/><stop offset=".31" stop-color="#70B3C1"/><stop offset=".39" stop-color="#70C0CA"/><stop offset=".46" stop-color="#71C5CD"/><stop offset=".62" stop-color="#9EBA8E"/><stop offset=".8" stop-color="#CAB052"/><stop offset=".93" stop-color="#E6AA2C"/><stop offset="1" stop-color="#F1A81E"/></linearGradient><linearGradient id="S" x1="31.25" x2="58.52" y1="33.96" y2="33.96" gradientUnits="userSpaceOnUse"><stop stop-color="#6C3672"/><stop offset=".06" stop-color="#6D5787"/><stop offset=".15" stop-color="#6E7EA0"/><stop offset=".23" stop-color="#6F9DB3"/><stop offset=".31" stop-color="#70B3C1"/><stop offset=".39" stop-color="#70C0CA"/><stop offset=".46" stop-color="#71C5CD"/><stop offset=".62" stop-color="#9EBA8E"/><stop offset=".8" stop-color="#CAB052"/><stop offset=".93" stop-color="#E6AA2C"/><stop offset="1" stop-color="#F1A81E"/></linearGradient><linearGradient id="U" x1="32.72" x2="57.01" y1="33.61" y2="33.61" gradientUnits="userSpaceOnUse"><stop stop-color="#6C3672"/><stop offset=".06" stop-color="#6D5787"/><stop offset=".15" stop-color="#6E7EA0"/><stop offset=".23" stop-color="#6F9DB3"/><stop offset=".31" stop-color="#70B3C1"/><stop offset=".39" stop-color="#70C0CA"/><stop offset=".46" stop-color="#71C5CD"/><stop offset=".62" stop-color="#9EBA8E"/><stop offset=".8" stop-color="#CAB052"/><stop offset=".93" stop-color="#E6AA2C"/><stop offset="1" stop-color="#F1A81E"/></linearGradient><linearGradient id="W" x1="34.21" x2="55.52" y1="33.26" y2="33.26" gradientUnits="userSpaceOnUse"><stop stop-color="#6C3672"/><stop offset=".06" stop-color="#6D5787"/><stop offset=".15" stop-color="#6E7EA0"/><stop offset=".23" stop-color="#6F9DB3"/><stop offset=".31" stop-color="#70B3C1"/><stop offset=".39" stop-color="#70C0CA"/><stop offset=".46" stop-color="#71C5CD"/><stop offset=".62" stop-color="#9EBA8E"/><stop offset=".8" stop-color="#CAB052"/><stop offset=".93" stop-color="#E6AA2C"/><stop offset="1" stop-color="#F1A81E"/></linearGradient><linearGradient id="Y" x1="35.68" x2="54.03" y1="32.91" y2="32.91" gradientUnits="userSpaceOnUse"><stop stop-color="#6C3672"/><stop offset=".06" stop-color="#6D5787"/><stop offset=".15" stop-color="#6E7EA0"/><stop offset=".23" stop-color="#6F9DB3"/><stop offset=".31" stop-color="#70B3C1"/><stop offset=".39" stop-color="#70C0CA"/><stop offset=".46" stop-color="#71C5CD"/><stop offset=".62" stop-color="#9EBA8E"/><stop offset=".8" stop-color="#CAB052"/><stop offset=".93" stop-color="#E6AA2C"/><stop offset="1" stop-color="#F1A81E"/></linearGradient><linearGradient id="aa" x1="37.14" x2="52.51" y1="32.56" y2="32.56" gradientUnits="userSpaceOnUse"><stop stop-color="#6C3672"/><stop offset=".06" stop-color="#6D5787"/><stop offset=".15" stop-color="#6E7EA0"/><stop offset=".23" stop-color="#6F9DB3"/><stop offset=".31" stop-color="#70B3C1"/><stop offset=".39" stop-color="#70C0CA"/><stop offset=".46" stop-color="#71C5CD"/><stop offset=".62" stop-color="#9EBA8E"/><stop offset=".8" stop-color="#CAB052"/><stop offset=".93" stop-color="#E6AA2C"/><stop offset="1" stop-color="#F1A81E"/></linearGradient><linearGradient id="ac" x1="38.63" x2="51.03" y1="32.2" y2="32.2" gradientUnits="userSpaceOnUse"><stop stop-color="#6C3672"/><stop offset=".06" stop-color="#6D5787"/><stop offset=".15" stop-color="#6E7EA0"/><stop offset=".23" stop-color="#6F9DB3"/><stop offset=".31" stop-color="#70B3C1"/><stop offset=".39" stop-color="#70C0CA"/><stop offset=".46" stop-color="#71C5CD"/><stop offset=".62" stop-color="#9EBA8E"/><stop offset=".8" stop-color="#CAB052"/><stop offset=".93" stop-color="#E6AA2C"/><stop offset="1" stop-color="#F1A81E"/></linearGradient><linearGradient id="ae" x1="40.1" x2="49.53" y1="31.85" y2="31.85" gradientUnits="userSpaceOnUse"><stop stop-color="#6C3672"/><stop offset=".06" stop-color="#6D5787"/><stop offset=".15" stop-color="#6E7EA0"/><stop offset=".23" stop-color="#6F9DB3"/><stop offset=".31" stop-color="#70B3C1"/><stop offset=".39" stop-color="#70C0CA"/><stop offset=".46" stop-color="#71C5CD"/><stop offset=".62" stop-color="#9EBA8E"/><stop offset=".8" stop-color="#CAB052"/><stop offset=".93" stop-color="#E6AA2C"/><stop offset="1" stop-color="#F1A81E"/></linearGradient><linearGradient id="ag" x1="41.58" x2="48.04" y1="31.5" y2="31.5" gradientUnits="userSpaceOnUse"><stop stop-color="#6C3672"/><stop offset=".06" stop-color="#6D5787"/><stop offset=".15" stop-color="#6E7EA0"/><stop offset=".23" stop-color="#6F9DB3"/><stop offset=".31" stop-color="#70B3C1"/><stop offset=".39" stop-color="#70C0CA"/><stop offset=".46" stop-color="#71C5CD"/><stop offset=".62" stop-color="#9EBA8E"/><stop offset=".8" stop-color="#CAB052"/><stop offset=".93" stop-color="#E6AA2C"/><stop offset="1" stop-color="#F1A81E"/></linearGradient><linearGradient id="ai" x1="43.07" x2="46.55" y1="31.15" y2="31.15" gradientUnits="userSpaceOnUse"><stop stop-color="#6C3672"/><stop offset=".06" stop-color="#6D5787"/><stop offset=".15" stop-color="#6E7EA0"/><stop offset=".23" stop-color="#6F9DB3"/><stop offset=".31" stop-color="#70B3C1"/><stop offset=".39" stop-color="#70C0CA"/><stop offset=".46" stop-color="#71C5CD"/><stop offset=".62" stop-color="#9EBA8E"/><stop offset=".8" stop-color="#CAB052"/><stop offset=".93" stop-color="#E6AA2C"/><stop offset="1" stop-color="#F1A81E"/></linearGradient><clipPath id="a"><path fill="#fff" d="M0 0h91.25v107H0z"/></clipPath></defs></svg>