<svg xmlns="http://www.w3.org/2000/svg" width="104" height="22" viewBox="0 0 104 22" fill="none">
  <path fill-rule="evenodd" clip-rule="evenodd" d="M10.9014 22C16.922 22 21.8027 17.0751 21.8027 11C21.8027 4.92487 16.922 0 10.9014 0C4.8807 0 0 4.92487 0 11C0 17.0751 4.8807 22 10.9014 22ZM8.48635 6.28571C8.48635 5.41784 9.18359 4.71429 10.0437 4.71429H11.6361C12.4962 4.71429 13.1934 5.41784 13.1934 6.28571V8.56318H15.4504C16.3105 8.56318 17.0077 9.26673 17.0077 10.1346V11.7414C17.0077 12.6093 16.3105 13.3128 15.4504 13.3128H13.1934V15.5902C13.1934 16.4581 12.4962 17.1617 11.6361 17.1617H10.0437C9.18359 17.1617 8.48635 16.4581 8.48635 15.5902V13.3128H6.22934C5.36925 13.3128 4.67201 12.6093 4.67201 11.7414V10.1346C4.67201 9.26673 5.36925 8.56318 6.22934 8.56318H8.48635V6.28571Z" fill="#25D366"/>
  <path d="M32.2618 18.3166C31.3647 18.3166 30.5861 18.1154 29.9258 17.7131C29.2655 17.3109 28.7484 16.7451 28.3747 16.016C28.0134 15.2743 27.8327 14.4069 27.8327 13.4137C27.8327 12.408 28.0196 11.528 28.3933 10.7737C28.7671 10.0069 29.2966 9.40971 29.9818 8.98228C30.6795 8.55486 31.5018 8.34114 32.4487 8.34114C33.0342 8.34114 33.5762 8.448 34.0745 8.66171C34.5853 8.87543 34.9778 9.15829 35.2519 9.51028V3.85314H38.1298V18.0714H35.42L35.2705 16.8646C35.0214 17.292 34.6227 17.644 34.0745 17.9206C33.5388 18.1846 32.9345 18.3166 32.2618 18.3166ZM32.9532 15.6577C33.4017 15.6577 33.7942 15.5634 34.1306 15.3749C34.4794 15.1737 34.7473 14.8971 34.9342 14.5451C35.1335 14.1806 35.2332 13.7657 35.2332 13.3006C35.2332 12.8229 35.1335 12.408 34.9342 12.056C34.7473 11.704 34.4794 11.4337 34.1306 11.2451C33.7942 11.044 33.4017 10.9434 32.9532 10.9434C32.5047 10.9434 32.1123 11.044 31.7759 11.2451C31.4395 11.4463 31.1779 11.7229 30.991 12.0749C30.8166 12.4269 30.7294 12.8354 30.7294 13.3006C30.7294 13.7657 30.8166 14.1743 30.991 14.5263C31.1779 14.8783 31.4395 15.1549 31.7759 15.356C32.1123 15.5571 32.5047 15.6577 32.9532 15.6577Z" fill="#25D366"/>
  <path d="M38.6185 13.3383C38.6185 12.3451 38.8365 11.4777 39.2726 10.736C39.7211 9.98171 40.3315 9.39714 41.104 8.98228C41.8889 8.56743 42.7797 8.36 43.7764 8.36C44.7731 8.36 45.6576 8.56743 46.4301 8.98228C47.2025 9.39714 47.8068 9.98171 48.2428 10.736C48.6913 11.4777 48.9156 12.3451 48.9156 13.3383C48.9156 14.3314 48.6913 15.1989 48.2428 15.9406C47.8068 16.6823 47.2025 17.2606 46.4301 17.6754C45.6576 18.0903 44.7731 18.2977 43.7764 18.2977C42.7797 18.2977 41.8889 18.0903 41.104 17.6754C40.3315 17.2606 39.7211 16.6823 39.2726 15.9406C38.8365 15.1989 38.6185 14.3314 38.6185 13.3383ZM41.5151 13.3194C41.5151 13.7971 41.6086 14.2183 41.7954 14.5829C41.9948 14.9349 42.2626 15.2114 42.599 15.4126C42.9354 15.6011 43.3279 15.6954 43.7764 15.6954C44.2249 15.6954 44.6173 15.6011 44.9537 15.4126C45.2901 15.2114 45.5517 14.9349 45.7386 14.5829C45.9255 14.2183 46.0189 13.7971 46.0189 13.3194C46.0189 12.8417 45.9255 12.4269 45.7386 12.0749C45.5517 11.7229 45.2901 11.4526 44.9537 11.264C44.6173 11.0629 44.2249 10.9623 43.7764 10.9623C43.3279 10.9623 42.9354 11.0629 42.599 11.264C42.2626 11.4526 41.9948 11.7229 41.7954 12.0749C41.6086 12.4269 41.5151 12.8417 41.5151 13.3194Z" fill="#25D366"/>
  <path d="M48.9115 13.3194C48.9115 12.3514 49.1171 11.4966 49.5282 10.7549C49.9393 10.0006 50.5 9.40971 51.2101 8.98228C51.9327 8.55486 52.7612 8.34114 53.6956 8.34114C55.0785 8.34114 56.1998 8.69943 57.0595 9.416C57.9191 10.1326 58.3925 11.1069 58.4798 12.3389H55.5831C55.4834 11.8611 55.2841 11.5091 54.9851 11.2829C54.6986 11.0566 54.3061 10.9434 53.8078 10.9434C53.4091 10.9434 53.054 11.044 52.7425 11.2451C52.4435 11.4337 52.213 11.704 52.0511 12.056C51.8891 12.408 51.8081 12.8291 51.8081 13.3194C51.8081 13.8223 51.8829 14.256 52.0324 14.6206C52.1944 14.9726 52.4186 15.2429 52.7052 15.4314C53.0042 15.62 53.3592 15.7143 53.7704 15.7143C54.2812 15.7143 54.6861 15.6011 54.9851 15.3749C55.2966 15.136 55.4959 14.784 55.5831 14.3189H58.4798C58.4175 15.1109 58.1745 15.8086 57.7509 16.412C57.3398 17.0029 56.7916 17.468 56.1064 17.8074C55.4212 18.1469 54.6425 18.3166 53.7704 18.3166C52.7861 18.3166 51.9265 18.1091 51.1914 17.6943C50.4688 17.2794 49.9082 16.7011 49.5095 15.9594C49.1108 15.2051 48.9115 14.3251 48.9115 13.3194Z" fill="#25D366"/>
  <path d="M58.0095 8.64286H64.4382V11.0566H58.0095V8.64286ZM62.6628 18.0714H59.7849V5.72H62.6628V18.0714Z" fill="#25D366"/>
  <path d="M63.9678 13.3383C63.9678 12.3451 64.1858 11.4777 64.6218 10.736C65.0704 9.98171 65.6808 9.39714 66.4533 8.98228C67.2382 8.56743 68.129 8.36 69.1257 8.36C70.1224 8.36 71.0069 8.56743 71.7794 8.98228C72.5518 9.39714 73.1561 9.98171 73.5921 10.736C74.0406 11.4777 74.2649 12.3451 74.2649 13.3383C74.2649 14.3314 74.0406 15.1989 73.5921 15.9406C73.1561 16.6823 72.5518 17.2606 71.7794 17.6754C71.0069 18.0903 70.1224 18.2977 69.1257 18.2977C68.129 18.2977 67.2382 18.0903 66.4533 17.6754C65.6808 17.2606 65.0704 16.6823 64.6218 15.9406C64.1858 15.1989 63.9678 14.3314 63.9678 13.3383ZM66.8644 13.3194C66.8644 13.7971 66.9578 14.2183 67.1447 14.5829C67.3441 14.9349 67.6119 15.2114 67.9483 15.4126C68.2847 15.6011 68.6772 15.6954 69.1257 15.6954C69.5742 15.6954 69.9666 15.6011 70.303 15.4126C70.6394 15.2114 70.901 14.9349 71.0879 14.5829C71.2748 14.2183 71.3682 13.7971 71.3682 13.3194C71.3682 12.8417 71.2748 12.4269 71.0879 12.0749C70.901 11.7229 70.6394 11.4526 70.303 11.264C69.9666 11.0629 69.5742 10.9623 69.1257 10.9623C68.6772 10.9623 68.2847 11.0629 67.9483 11.264C67.6119 11.4526 67.3441 11.7229 67.1447 12.0749C66.9578 12.4269 66.8644 12.8417 66.8644 13.3194Z" fill="#25D366"/>
  <path d="M81.194 8.64286V11.3771H80.2783C79.4561 11.3771 78.8082 11.5783 78.3348 11.9806C77.8738 12.3829 77.6433 13.0491 77.6433 13.9794V18.0714H74.7654V8.66171H77.4751L77.6994 10.6794H77.4377C77.5623 10.0509 77.8427 9.53543 78.2787 9.13314C78.7272 8.71828 79.3315 8.51086 80.0914 8.51086C80.2659 8.51086 80.4403 8.52343 80.6147 8.54857C80.8016 8.56114 80.9947 8.59257 81.194 8.64286Z" fill="#25D366"/>
  <path d="M81.4814 18.0714V8.64286H84.3593V18.0714H81.4814ZM82.9017 7.172C82.4407 7.172 82.0482 7.01486 81.7243 6.70057C81.4128 6.37371 81.2571 5.97771 81.2571 5.51257C81.2571 5.04743 81.4128 4.65771 81.7243 4.34343C82.0482 4.02914 82.4407 3.872 82.9017 3.872C83.3502 3.872 83.7302 4.02914 84.0416 4.34343C84.3656 4.65771 84.5275 5.04743 84.5275 5.51257C84.5275 5.97771 84.3656 6.37371 84.0416 6.70057C83.7302 7.01486 83.3502 7.172 82.9017 7.172Z" fill="#25D366"/>
  <path d="M88.2283 18.0714H85.3504V8.64286H88.0601L88.247 9.62343C88.5336 9.22114 88.926 8.90686 89.4244 8.68057C89.9352 8.45428 90.4958 8.34114 91.1063 8.34114C92.2151 8.34114 93.0748 8.68686 93.6852 9.37828C94.3082 10.0571 94.6196 11.0126 94.6196 12.2446V18.0714H91.7417V12.9423C91.7417 12.3514 91.5922 11.88 91.2932 11.528C90.9942 11.1634 90.5955 10.9811 90.0971 10.9811C89.524 10.9811 89.0693 11.1571 88.7329 11.5091C88.3965 11.8486 88.2283 12.3137 88.2283 12.9046V18.0714Z" fill="#25D366"/>
  <path d="M98.3375 18.3166C97.3533 18.3166 96.5684 18.0463 95.9828 17.5057C95.4097 16.9526 95.1232 16.2171 95.1232 15.2994C95.1232 14.432 95.416 13.7406 96.0015 13.2251C96.5995 12.7097 97.4592 12.408 98.5805 12.32L101.197 12.1126V11.9617C101.197 11.6474 101.135 11.3897 101.01 11.1886C100.885 10.9749 100.705 10.8177 100.468 10.7171C100.244 10.604 99.9572 10.5474 99.6083 10.5474C98.9978 10.5474 98.5306 10.6606 98.2067 10.8869C97.8952 11.1131 97.7395 11.44 97.7395 11.8674H95.3475C95.3475 11.1509 95.5281 10.5286 95.8894 10.0006C96.2507 9.47257 96.7615 9.064 97.4218 8.77486C98.0946 8.48571 98.8733 8.34114 99.7578 8.34114C100.667 8.34114 101.434 8.50457 102.056 8.83143C102.692 9.15829 103.172 9.636 103.495 10.2646C103.832 10.8931 104 11.66 104 12.5651V18.0714H101.458L101.272 16.8269C101.122 17.2543 100.767 17.6126 100.206 17.9017C99.6582 18.1783 99.0352 18.3166 98.3375 18.3166ZM99.3467 16.1669C99.8949 16.1669 100.343 16.0349 100.692 15.7709C101.041 15.4943 101.215 15.0857 101.215 14.5451V14.036L99.7578 14.168C99.1349 14.2183 98.6926 14.3251 98.431 14.4886C98.1818 14.6394 98.0572 14.8657 98.0572 15.1674C98.0572 15.5069 98.1631 15.7583 98.3749 15.9217C98.5867 16.0851 98.9106 16.1669 99.3467 16.1669Z" fill="#25D366"/>
  <path d="M21.7983 20.7627C21.8973 21.0482 21.6529 21.3347 21.3584 21.2784L15.3952 20.1391C15.1007 20.0829 14.9771 19.726 15.1726 19.4968L19.1319 14.8555C19.3275 14.6263 19.6956 14.6966 19.7945 14.9821L21.7983 20.7627Z" fill="#25D366"/>
</svg>