<svg xmlns="http://www.w3.org/2000/svg" width="107" height="107" fill="none">
  <g clip-path="url(#a)">
    <mask id="b" width="107" height="107" x="0" y="0" maskUnits="userSpaceOnUse" style="mask-type:luminance">
      <path fill="#fff" d="M107 0H0v107h107V0Z"/>
    </mask>
    <g mask="url(#b)">
      <g filter="url(#c)">
        <path fill="url(#d)" d="M26.65 76.83a.04.04 0 0 0-.05-.04 16.79 16.79 0 0 1-5.38-33.08c.14-.03.21-.05.26-.1.04-.04.06-.11.08-.26a32.5 32.5 0 0 1 63.97 0c.03.14.04.22.09.26.04.05.11.07.26.1a16.8 16.8 0 0 1-5.39 33.08.04.04 0 0 0-.04.04c0 .02-.02.04-.04.04h-9.9a.22.22 0 0 0-.11.03h-.02a.22.22 0 0 1-.1.04H36.82a.22.22 0 0 1-.1-.03h-.01l-.01-.01a.22.22 0 0 0-.1-.03h-9.92a.04.04 0 0 1-.03-.04Z"/>
      </g>
      <g filter="url(#e)">
        <path fill="url(#f)" d="M63.89 46.07a5.9 5.9 0 1 0 0-11.81 5.9 5.9 0 0 0 0 11.81Z"/>
      </g>
      <g filter="url(#g)">
        <path fill="url(#h)" d="M41.98 46.07a5.9 5.9 0 1 0 0-11.81 5.9 5.9 0 0 0 0 11.81Z"/>
      </g>
      <path fill="#fff" d="M44.92 43.31a.84.84 0 1 0 0-1.68.84.84 0 0 0 0 1.68ZM67.25 43.31a.84.84 0 1 0 0-1.68.84.84 0 0 0 0 1.68ZM40.5 42.47a3.16 3.16 0 1 0 0-6.32 3.16 3.16 0 0 0 0 6.32ZM62.82 42.47a3.16 3.16 0 1 0 0-6.32 3.16 3.16 0 0 0 0 6.32Z"/>
      <path fill="#0F2D4A" d="M27.94 53.96c0-.42.34-.76.76-.76h49.7c.41 0 .76.34.76.76v17.18c0 5.07-4.11 9.17-9.18 9.17H37.11a9.17 9.17 0 0 1-9.17-9.17V53.96Z"/>
      <g filter="url(#i)">
        <path fill="url(#j)" d="M79.2 53.2h-8.55V107h8.56V53.2Z"/>
        <path fill="url(#k)" d="M62.1 53.2h8.55V107H62.1V53.2Z"/>
        <path fill="url(#l)" d="M53.55 53.2h8.55V107h-8.55V53.2Z"/>
        <path fill="url(#m)" d="M45 53.2h8.55V107H45V53.2Z"/>
        <path fill="url(#n)" d="M36.45 53.2H45V107h-8.55V53.2Z"/>
        <path fill="url(#o)" d="M36.45 53.2H27.9V107h8.55V53.2Z"/>
      </g>
      <path fill="url(#p)" d="M79.2 53.19H27.9v8.15h51.3v-8.15Z"/>
    </g>
  </g>
  <defs>
    <linearGradient id="d" x1="47.06" x2="46.43" y1="13.6" y2="76.89" gradientUnits="userSpaceOnUse">
      <stop stop-color="#E7F2FF"/>
      <stop offset=".17" stop-color="#fff"/>
      <stop offset=".43" stop-color="#E7F2FF"/>
      <stop offset=".89" stop-color="#80B5EF"/>
      <stop offset=".99" stop-color="#9DDCFF"/>
    </linearGradient>
    <linearGradient id="f" x1="63.89" x2="63.89" y1="34.26" y2="46.07" gradientUnits="userSpaceOnUse">
      <stop stop-color="#3E6A95"/>
      <stop offset="1" stop-color="#0F2D4A"/>
    </linearGradient>
    <linearGradient id="h" x1="41.98" x2="41.98" y1="34.26" y2="46.07" gradientUnits="userSpaceOnUse">
      <stop stop-color="#3E6A95"/>
      <stop offset="1" stop-color="#0F2D4A"/>
    </linearGradient>
    <linearGradient id="j" x1="74.93" x2="74.93" y1="53.2" y2="107" gradientUnits="userSpaceOnUse">
      <stop stop-color="#8A22D7"/>
      <stop offset=".19" stop-color="#A276FF"/>
      <stop offset=".81" stop-color="#460184"/>
    </linearGradient>
    <linearGradient id="k" x1="66.38" x2="66.38" y1="53.2" y2="107" gradientUnits="userSpaceOnUse">
      <stop stop-color="#438EE5"/>
      <stop offset=".19" stop-color="#9DDCFF"/>
      <stop offset="1" stop-color="#2070CE"/>
    </linearGradient>
    <linearGradient id="l" x1="57.83" x2="57.83" y1="53.2" y2="107" gradientUnits="userSpaceOnUse">
      <stop stop-color="#94CE00"/>
      <stop offset=".19" stop-color="#D7FF71"/>
      <stop offset="1" stop-color="#74A001"/>
    </linearGradient>
    <linearGradient id="m" x1="49.28" x2="49.28" y1="53.2" y2="107" gradientUnits="userSpaceOnUse">
      <stop stop-color="#FFD335"/>
      <stop offset=".19" stop-color="#FFF59D"/>
      <stop offset="1" stop-color="#FFBA35"/>
    </linearGradient>
    <linearGradient id="n" x1="40.73" x2="40.73" y1="53.2" y2="107" gradientUnits="userSpaceOnUse">
      <stop stop-color="#C73B00"/>
      <stop offset=".19" stop-color="#FF9366"/>
      <stop offset="1" stop-color="#D8470A"/>
    </linearGradient>
    <linearGradient id="o" x1="32.17" x2="32.17" y1="53.2" y2="107" gradientUnits="userSpaceOnUse">
      <stop stop-color="#CF2224"/>
      <stop offset=".19" stop-color="#FF6A6C"/>
      <stop offset="1" stop-color="#B90E0F"/>
    </linearGradient>
    <linearGradient id="p" x1="53.55" x2="53.55" y1="53.19" y2="61.34" gradientUnits="userSpaceOnUse">
      <stop stop-color="#0F2D4A"/>
      <stop offset="1" stop-color="#0F2D4A" stop-opacity="0"/>
    </linearGradient>
    <filter id="c" width="201.23" height="170.74" x="-47.07" y="-4.62" color-interpolation-filters="sRGB" filterUnits="userSpaceOnUse">
      <feFlood flood-opacity="0" result="BackgroundImageFix"/>
      <feColorMatrix in="SourceAlpha" result="hardAlpha" values="0 0 0 0 0 0 0 0 0 0 0 0 0 0 0 0 0 0 127 0"/>
      <feOffset dy="33.98"/>
      <feGaussianBlur stdDeviation="27.6"/>
      <feComposite in2="hardAlpha" operator="out"/>
      <feColorMatrix values="0 0 0 0 1 0 0 0 0 1 0 0 0 0 1 0 0 0 0.7 0"/>
      <feBlend in2="BackgroundImageFix" result="effect1_dropShadow_168_306"/>
      <feColorMatrix in="SourceAlpha" result="hardAlpha" values="0 0 0 0 0 0 0 0 0 0 0 0 0 0 0 0 0 0 127 0"/>
      <feOffset dx="4.73" dy="8.65"/>
      <feGaussianBlur stdDeviation="5.91"/>
      <feComposite in2="hardAlpha" operator="out"/>
      <feColorMatrix values="0 0 0 0 1 0 0 0 0 1 0 0 0 0 1 0 0 0 1 0"/>
      <feBlend in2="effect1_dropShadow_168_306" result="effect2_dropShadow_168_306"/>
      <feBlend in="SourceGraphic" in2="effect2_dropShadow_168_306" result="shape"/>
    </filter>
    <filter id="e" width="11.81" height="13.65" x="57.98" y="34.26" color-interpolation-filters="sRGB" filterUnits="userSpaceOnUse">
      <feFlood flood-opacity="0" result="BackgroundImageFix"/>
      <feColorMatrix in="SourceAlpha" result="hardAlpha" values="0 0 0 0 0 0 0 0 0 0 0 0 0 0 0 0 0 0 127 0"/>
      <feOffset dy="1.84"/>
      <feComposite in2="hardAlpha" operator="out"/>
      <feColorMatrix values="0 0 0 0 1 0 0 0 0 1 0 0 0 0 1 0 0 0 1 0"/>
      <feBlend in2="BackgroundImageFix" result="effect1_dropShadow_168_306"/>
      <feBlend in="SourceGraphic" in2="effect1_dropShadow_168_306" result="shape"/>
    </filter>
    <filter id="g" width="11.81" height="13.65" x="36.07" y="34.26" color-interpolation-filters="sRGB" filterUnits="userSpaceOnUse">
      <feFlood flood-opacity="0" result="BackgroundImageFix"/>
      <feColorMatrix in="SourceAlpha" result="hardAlpha" values="0 0 0 0 0 0 0 0 0 0 0 0 0 0 0 0 0 0 127 0"/>
      <feOffset dy="1.84"/>
      <feComposite in2="hardAlpha" operator="out"/>
      <feColorMatrix values="0 0 0 0 1 0 0 0 0 1 0 0 0 0 1 0 0 0 1 0"/>
      <feBlend in2="BackgroundImageFix" result="effect1_dropShadow_168_306"/>
      <feBlend in="SourceGraphic" in2="effect1_dropShadow_168_306" result="shape"/>
    </filter>
    <filter id="i" width="108.05" height="110.55" x="-.47" y="48.48" color-interpolation-filters="sRGB" filterUnits="userSpaceOnUse">
      <feFlood flood-opacity="0" result="BackgroundImageFix"/>
      <feColorMatrix in="SourceAlpha" result="hardAlpha" values="0 0 0 0 0 0 0 0 0 0 0 0 0 0 0 0 0 0 127 0"/>
      <feOffset dy="23.66"/>
      <feGaussianBlur stdDeviation="14.19"/>
      <feColorMatrix values="0 0 0 0 0 0 0 0 0 0.122 0 0 0 0 0.254167 0 0 0 0.4 0"/>
      <feBlend in2="BackgroundImageFix" result="effect1_dropShadow_168_306"/>
      <feBlend in="SourceGraphic" in2="effect1_dropShadow_168_306" result="shape"/>
    </filter>
    <clipPath id="a">
      <path fill="#fff" d="M0 0h107v107H0z"/>
    </clipPath>
  </defs>
</svg>
