<svg xmlns="http://www.w3.org/2000/svg" width="648" height="39" fill="none"><g fill="#559EE8" clip-path="url(#a)"><path d="M112.3 37.392c-1.4 1.81-3.9 2.01-5.7.603-1-.804-1.5-2.01-1.5-3.217 0-.904.3-1.809.8-2.512l20.7-27.944c3.2-4.221 9-5.629 13.8-3.317 1.5.704 2.8 1.709 3.7 3.116l20.6 27.742c.3.403.6.805.9 1.307.2.503.3 1.005.3 1.608 0 2.212-1.8 4.122-4 4.122-1.3 0-2.5-.603-3.2-1.609l-19.8-26.536-1.5-1.508c-.9-1.005-2.5-1.105-3.5-.1l-.1.1c-.5.503-1 1.006-1.4 1.508zM179.7 39c-1.3 0-2.6-.301-3.7-.804-1.2-.503-2.4-1.307-3.3-2.211-1-1.005-1.8-2.212-2.4-3.518-.6-1.408-1-3.016-.9-4.624v-7.74c0-1.508.4-2.613 1.3-3.116 1.3-.603 2.7-.904 4.1-.804h57c2.2 0 4.1 1.81 4.1 4.02 0 2.212-1.8 4.122-4 4.122h-54.3v4.222c0 .603.3 1.105.7 1.507.5.402 1.2.704 1.9.603h53.6c2.3 0 4.1 1.81 4.1 4.122s-1.8 4.12-4.1 4.12zM169.4 5.83c0-1.106.4-2.11 1.2-2.915.8-.804 1.8-1.206 2.9-1.206h60.3c1.1 0 2.1.402 2.9 1.206s1.2 1.81 1.2 2.915c0 1.106-.4 2.11-1.2 2.915-.8.804-1.8 1.206-2.9 1.206h-60.3c-1.1 0-2.1-.402-2.9-1.206s-1.2-1.91-1.2-2.915M293 30.758c1.7.1 3.3-.302 4.8-1.106a7.9 7.9 0 0 0 2.9-2.513 8.5 8.5 0 0 0 1.4-3.417c.2-1.106.4-2.212.4-3.418 0-1.105-.1-2.312-.4-3.417-.3-1.207-.7-2.312-1.4-3.317-.8-1.106-1.8-2.01-2.9-2.614-1.5-.804-3.1-1.105-4.8-1.105h-47.8c-1.1 0-2.1-.403-2.9-1.207s-1.2-1.809-1.2-2.915c0-1.105.4-2.11 1.2-2.915.8-.804 1.8-1.206 2.9-1.206h49.6c2.3 0 4.6.603 6.5 1.709s3.6 2.613 4.9 4.423c1.4 1.809 2.4 3.82 3.1 6.03.7 2.112 1 4.323 1.1 6.534 0 2.212-.3 4.322-1 6.433s-1.6 4.121-2.9 5.93c-1.3 1.71-2.8 3.217-4.6 4.423-1.9 1.206-4 1.81-6.2 1.91h-50.4c-2.2 0-4.1-1.81-4.1-4.02V20.303c0-2.312 1.8-4.121 4.1-4.121s4.1 1.81 4.1 4.121v10.454zM319 37.392c-1.4 1.81-4 2.01-5.7.603-1-.804-1.5-1.91-1.5-3.217 0-.904.3-1.809.9-2.512l20.7-27.944c3.2-4.221 8.9-5.629 13.7-3.317 1.5.704 2.8 1.709 3.7 3.116l20.7 27.742c.3.403.6.805.9 1.307.2.503.3 1.005.3 1.608 0 2.212-1.8 4.122-4 4.122-1.3 0-2.5-.603-3.2-1.609l-19.8-26.536-1.5-1.508c-.9-1.005-2.5-1.105-3.5-.1-.1 0-.1.1-.1.1-.5.503-.9 1.006-1.4 1.508zM383.2 38.096c-1.4-.604-2.6-1.408-3.7-2.413-1-1.005-1.9-2.211-2.5-3.618s-.9-2.915-.9-4.423V5.83c0-1.106.4-2.11 1.2-2.915.7-.804 1.8-1.206 2.8-1.206 1.1 0 2.1.402 2.8 1.206.8.704 1.3 1.81 1.2 2.915v21.812c0 .804.4 1.608 1 2.211s1.4.905 2.3.905h51c2.3 0 4.1 1.81 4.1 4.121S440.7 39 438.4 39h-50.8c-1.5 0-3-.301-4.4-.904M456.3 39c-1.3 0-2.6-.301-3.7-.804-1.2-.503-2.4-1.307-3.3-2.211-1-1.005-1.8-2.212-2.4-3.518-.6-1.408-1-3.016-.9-4.624v-7.74c0-1.508.4-2.613 1.3-3.116 1.3-.603 2.7-.904 4.1-.804h57c2.3 0 4.1 1.81 4.1 4.121 0 1.106-.4 2.212-1.2 2.915-.8.804-1.8 1.206-2.9 1.206H454v4.222c0 .603.3 1.106.7 1.508.5.402 1.2.703 1.9.603h53.6c2.3 0 4.1 1.81 4.1 4.121S512.5 39 510.2 39zM445.9 5.83c0-1.106.4-2.11 1.2-2.915.8-.804 1.8-1.206 2.9-1.206h60.3c2.2 0 4.1 1.81 4.1 4.02 0 2.212-1.8 4.122-4 4.122H450c-1.1 0-2.1-.402-2.9-1.207-.8-.703-1.2-1.708-1.2-2.814M524.9 37.392c-.8 1.005-1.9 1.508-3.1 1.508-2.2 0-4.1-1.81-4.1-4.021 0-.905.3-1.81.8-2.513l20.7-27.943c1-1.307 2.3-2.413 3.8-3.217 3.1-1.608 6.8-1.608 10-.1 1.5.703 2.8 1.708 3.7 3.116l20.7 27.742c.3.402.6.804.8 1.307s.3 1.005.3 1.608c0 2.211-1.8 4.121-4 4.121-1.3 0-2.5-.603-3.2-1.608l-19.8-26.536c-.5-.503-.9-1.005-1.5-1.508-.9-1.005-2.5-1.106-3.5-.1-.1 0-.1.1-.1.1-.5.503-1 1.005-1.4 1.508zM641.1 2.915a4.09 4.09 0 0 1 5.8 0c.8.804 1.2 1.81 1.2 2.915v24.827c.1 2.212-.8 4.323-2.3 5.93C644.3 38.197 642.2 39 640 39c-1.6 0-3.1-.402-4.4-1.307l-38.9-23.922q-1.65-.905-2.7-1.508-.75-.453-1.8-.603c-.8 0-1.4.502-1.6 1.608-.3 1.508-.4 3.116-.3 4.724V34.78c0 2.311-1.8 4.12-4.1 4.12s-4.1-1.809-4.1-4.12V10.052c-.1-2.212.8-4.323 2.3-5.93 1.5-1.609 3.6-2.413 5.8-2.413.8 0 1.6.1 2.3.301q1.05.302 2.1.905l38.9 23.923q1.65.904 2.7 1.508c.5.301 1.1.502 1.7.603.8 0 1.4-.503 1.6-1.609.3-1.507.4-3.116.3-4.724V5.83c0-1.106.4-2.211 1.3-2.915M12.4 22.516a4.39 4.39 0 0 1 0-6.031c.8-.805 1.9-1.307 3-1.207h69.7c2.3 0 4.2 1.91 4.3 4.222v.1c0 2.312-1.9 4.222-4.2 4.323H15.5c-1.2-.1-2.2-.503-3.1-1.407m73.7 7.84c1.7.1 3.5-.302 5-1.106a9.7 9.7 0 0 0 3-2.714c.7-1.106 1.3-2.211 1.5-3.518.3-1.206.4-2.312.4-3.518s-.2-2.412-.4-3.518c-.3-1.307-.8-2.513-1.5-3.518a9.7 9.7 0 0 0-3-2.714 9.6 9.6 0 0 0-5-1.106H4.3c-1.1 0-2.2-.402-3-1.206A4.35 4.35 0 0 1 0 4.322c0-1.106.4-2.211 1.2-3.015C2 .402 3.1 0 4.3 0H89c2.3 0 4.5.603 6.5 1.81 1.9 1.205 3.6 2.713 4.8 4.623 1.4 1.91 2.4 4.02 3.1 6.333.7 2.21 1.1 4.523 1.1 6.734 0 2.312-.4 4.624-1.1 6.835s-1.8 4.322-3.2 6.232-3.2 3.417-5.2 4.624C92.9 38.397 90.6 39 88.2 39h-54c-2.4.1-4.4-1.709-4.5-4.121s1.7-4.423 4.1-4.523h52.3"/></g><defs><clipPath id="a"><path fill="#fff" d="M0 0h648v39H0z"/></clipPath></defs></svg>